<svg width="240" height="152" viewBox="0 0 240 152" fill="none" xmlns="http://www.w3.org/2000/svg">
<path d="M0.790527 53.1784L211.225 83.4692L239.467 111.969L0.790527 53.1784Z" fill="#E4E4E4"/>
<path d="M239.466 111.969L206.402 103.825L211.225 83.4692L239.466 111.969Z" fill="#EDEFF1"/>
<path d="M0.790527 53.1784L211.225 83.4692L201.46 124.68L0.790527 53.1784Z" fill="#E4E4E4"/>
<path d="M201.46 124.68L174.359 94.427L133.7 84.7642L168.552 77.327L211.225 83.4692L206.402 103.825L201.46 124.68ZM85.886 73.4012L0.790527 53.1784L84.1303 65.1747L85.886 73.4012Z" fill="#C1C4CA"/>
<path d="M197.138 5.46825L209.358 62.7239C210.019 65.8255 208.023 68.9039 204.922 69.5649L95.9253 92.8255C92.8246 93.4873 89.7471 91.4916 89.0853 88.391L76.8665 31.1353C76.5203 29.5144 76.9016 27.8953 77.7859 26.6261C78.5954 25.475 79.8213 24.6101 81.301 24.2935L190.297 1.03381C191.778 0.718117 193.249 1.00796 194.458 1.72704C195.784 2.5255 196.792 3.84733 197.138 5.46825Z" fill="#E4E4E4"/>
<path d="M94.728 92.9519C92.0686 92.9519 89.6612 91.0901 89.0852 88.391L88.2185 84.3304L106.016 90.6719L95.9252 92.8255C95.5246 92.9113 95.1231 92.9519 94.728 92.9519ZM133.7 84.7642L85.8858 73.4012L76.8665 31.1353C76.7815 30.7356 76.74 30.3369 76.74 29.9437C76.7382 28.7381 77.1194 27.5824 77.7859 26.6261C78.5954 25.475 79.8212 24.6101 81.3009 24.2935L190.297 1.03382C190.698 0.947975 191.1 0.907349 191.495 0.907349C192.557 0.907349 193.577 1.20274 194.458 1.72705C195.784 2.52551 196.792 3.84734 197.138 5.46826L209.358 62.7239C209.442 63.1236 209.484 63.5233 209.484 63.9175C209.486 66.5787 207.623 68.9889 204.922 69.5649L202.836 70.0107L190.851 72.5686L190.62 72.6175L179.742 74.939L179.512 74.988L133.7 84.7642Z" fill="#C1C4CA"/>
<path d="M194.458 1.72705L158.037 46.4335C151.081 54.972 139.12 57.5243 129.284 52.5701L77.7859 26.6261C78.5964 25.475 79.8213 24.6101 81.301 24.2935L190.297 1.03382C191.778 0.718132 193.249 1.00798 194.458 1.72705Z" fill="#E4E4E4"/>
<path d="M0.790527 53.1784L174.359 94.427L201.46 124.68L0.790527 53.1784Z" fill="#E4E4E4"/>
<path d="M201.46 124.68L190.851 120.9L190.62 120.818L179.743 116.942L179.512 116.86L133.71 100.54L116.48 94.4002L116.259 94.3218L109.961 92.0778L106.016 90.6719L88.2185 84.3304L0.790527 53.1784L174.359 94.427L201.46 124.68Z" fill="#EDEFF1"/>
<path d="M0.790527 53.1784L174.359 94.4271L140.622 135.094L0.790527 53.1784Z" fill="#E4E4E4"/>
<path d="M232.947 149.825C232.722 149.825 232.492 149.782 232.268 149.694L203.991 138.498C203.043 138.124 202.579 137.051 202.954 136.102C203.329 135.155 204.397 134.688 205.351 135.066L233.628 146.262C234.576 146.636 235.04 147.709 234.665 148.657C234.378 149.382 233.683 149.825 232.947 149.825Z" fill="#E4E4E4"/>
<path d="M232.947 149.825C232.722 149.825 232.492 149.782 232.269 149.694L203.991 138.498C203.265 138.211 202.823 137.515 202.824 136.779C202.824 136.554 202.867 136.325 202.954 136.102C203.241 135.378 203.933 134.934 204.669 134.934C204.895 134.934 205.126 134.977 205.351 135.066L233.628 146.262C234.354 146.549 234.796 147.245 234.795 147.98C234.795 148.206 234.753 148.435 234.665 148.657C234.378 149.382 233.683 149.825 232.947 149.825Z" fill="#D5D5D5"/>
<path d="M231.282 133.61C231.056 133.61 230.826 133.567 230.602 133.48L215.416 127.467C214.468 127.092 214.003 126.019 214.379 125.07C214.753 124.123 215.823 123.656 216.775 124.034L231.962 130.047C232.91 130.421 233.374 131.494 232.998 132.443C232.712 133.168 232.017 133.61 231.282 133.61Z" fill="#E4E4E4"/>
<path d="M231.282 133.61C231.056 133.61 230.826 133.567 230.602 133.48L215.416 127.467C214.69 127.18 214.247 126.484 214.249 125.747C214.249 125.522 214.291 125.293 214.379 125.07C214.665 124.347 215.358 123.903 216.093 123.903C216.32 123.903 216.551 123.945 216.775 124.034L231.962 130.047C232.688 130.334 233.131 131.03 233.129 131.765C233.129 131.992 233.086 132.221 232.999 132.443C232.712 133.168 232.017 133.61 231.282 133.61Z" fill="#E4E4E4"/>
<path d="M199.533 149.545C199.308 149.545 199.078 149.502 198.855 149.415L171.283 138.498C170.335 138.124 169.871 137.05 170.247 136.102C170.622 135.154 171.693 134.691 172.643 135.066L200.214 145.982C201.162 146.357 201.627 147.429 201.25 148.378C200.964 149.103 200.269 149.545 199.533 149.545Z" fill="#E4E4E4"/>
<path d="M199.533 149.545C199.308 149.545 199.078 149.502 198.855 149.415L190.851 146.246L190.62 146.154L179.743 141.847L179.512 141.756L171.283 138.498C170.558 138.211 170.116 137.515 170.117 136.779C170.117 136.554 170.159 136.325 170.247 136.102C170.533 135.378 171.227 134.935 171.963 134.935C172.189 134.935 172.42 134.978 172.643 135.066L200.214 145.982C200.94 146.269 201.382 146.965 201.381 147.702C201.38 147.927 201.339 148.156 201.25 148.378C200.964 149.103 200.269 149.545 199.533 149.545Z" fill="#D5D5D5"/>
</svg>
