<svg width="92" height="180" viewBox="0 0 92 180" fill="none" xmlns="http://www.w3.org/2000/svg">
<path d="M10.0508 22.0385H14.9472C10.0188 22.0385 6.30366 25.8284 6.64901 30.5026L17.0404 171.473C17.3848 176.148 21.6582 179.937 26.5857 179.937H21.6901C16.7631 179.937 12.4894 176.148 12.1451 171.473L1.75259 30.5026C1.40828 25.8284 5.12342 22.0385 10.0508 22.0385Z" fill="#D4D4D4"/>
<path d="M10.0508 22.0385H14.9472C10.0188 22.0385 6.30364 25.8284 6.64898 30.5026L17.0404 171.473C17.3848 176.148 21.6582 179.937 26.5857 179.937H21.6901C16.7631 179.937 11.7994 176.148 11.4541 171.473L1.06291 30.5026C0.718254 25.8284 5.12339 22.0385 10.0508 22.0385Z" fill="#C1C4CA"/>
<path d="M23.1511 179.937H83.0923C88.0197 179.937 91.7345 176.148 91.3904 171.473L80.999 30.5026C80.6548 25.8284 76.3811 22.0385 71.4528 22.0385H11.5116C6.58421 22.0385 2.86873 25.8284 3.21304 30.5026L13.6044 171.473C13.9491 176.148 18.2225 179.937 23.1511 179.937Z" fill="#D4D4D4"/>
<path d="M82.8294 177.221H54.366L73.8473 26.5656C72.7381 25.452 71.1684 24.7541 69.4149 24.7541H50.1743L30.4584 177.221H26.1683L45.8834 24.7541H40.5057L20.8321 176.897C18.3468 176.096 16.4388 173.904 16.2488 171.331L5.85732 30.3603C5.74511 28.8491 6.2539 27.4361 7.28856 26.3831C8.3195 25.3334 9.76117 24.7541 11.349 24.7541H71.2909C74.7124 24.7541 77.6906 27.3968 77.9304 30.645L80.7767 69.2583C80.6464 69.1944 80.5007 69.1584 80.3471 69.1584H74.6365H74.1414C73.6593 69.1584 73.285 69.5176 73.2858 69.9701C73.2858 69.984 73.2867 69.9987 73.2876 70.0135L74.0742 84.2621C74.1 84.7342 74.5252 85.1171 75.0229 85.1171H75.1704H75.1963L76.7557 90.1685C76.3779 90.396 76.0277 90.6644 75.7164 90.9712C75.907 98.2579 77.2956 102.581 79.5355 109.556C79.9202 110.76 80.8051 112.356 81.922 113.807C82.5129 114.573 83.309 115.077 84.1723 115.325L88.3218 171.615C88.4331 173.127 87.9242 174.539 86.8909 175.592C85.8602 176.643 84.4173 177.221 82.8294 177.221ZM73.3117 78.0513L73.2936 78.0104L73.2858 78.0513H73.3117ZM73.2858 77.994L73.2936 78.0104V77.994H73.2858ZM82.3749 90.9433L81.9488 89.5713C81.5555 89.4387 81.1484 89.3503 80.7353 89.3045C80.7818 87.9341 81.0751 86.3861 80.9629 85.1171H81.2295C81.5175 85.1171 81.7677 84.9886 81.9212 84.7882L82.3749 90.9433Z" fill="#E4E4E4"/>
<path d="M54.3659 177.221H30.4583L50.1741 24.754H69.4148C71.1683 24.754 72.738 25.452 73.8472 26.5655L54.3659 177.221Z" fill="#EDEFF1"/>
<path d="M26.1682 177.221H22.8881C22.1766 177.221 21.4847 177.107 20.832 176.897L40.5056 24.754H45.8833L26.1682 177.221Z" fill="#EDEFF1"/>
<path d="M24.3026 91.7812H67.7217C67.9598 91.7812 68.153 91.5987 68.153 91.3721C68.153 91.1462 67.9598 90.963 67.7217 90.963H24.3026C24.0645 90.963 23.8713 91.1462 23.8713 91.3721C23.8713 91.5987 24.0645 91.7812 24.3026 91.7812Z" fill="#C1C4CA"/>
<path d="M29.9027 97.8725H63.9128C64.1508 97.8725 64.344 97.6893 64.344 97.4634C64.344 97.2376 64.1508 97.0543 63.9128 97.0543H29.9027C29.6646 97.0543 29.4714 97.2376 29.4714 97.4634C29.4714 97.6893 29.6646 97.8725 29.9027 97.8725Z" fill="#C1C4CA"/>
<path d="M25.5972 63.288L25.6567 64.9064H24.5441L24.4846 63.2749L22.5146 60.3385H23.6963L25.0556 62.3676L26.2648 60.3385H27.3576L25.5972 63.288Z" fill="#C1C4CA"/>
<path d="M31.539 62.622C31.5071 61.7547 30.8395 61.1607 29.9813 61.1607C29.1222 61.1607 28.4987 61.7547 28.5306 62.622C28.5625 63.4901 29.2301 64.0841 30.0891 64.0841C30.9473 64.0841 31.5709 63.4901 31.539 62.622ZM27.4033 62.622C27.3533 61.2646 28.4288 60.2599 29.9477 60.2599C31.4588 60.2599 32.6154 61.2589 32.6663 62.622C32.7172 63.9859 31.6339 64.9849 30.1228 64.9849C28.6039 64.9849 27.4542 63.9794 27.4033 62.622Z" fill="#C1C4CA"/>
<path d="M33.4771 62.8961L33.3831 60.3385H34.4957L34.5888 62.8568C34.6207 63.7257 35.0322 64.0841 35.7058 64.0841C36.3863 64.0841 36.7641 63.7257 36.7321 62.8568L36.639 60.3385H37.7387L37.8327 62.8961C37.8827 64.2403 37.1004 64.9849 35.7334 64.9849C34.3654 64.9849 33.5271 64.2403 33.4771 62.8961Z" fill="#C1C4CA"/>
<path d="M40.8937 61.2H39.9855L40.045 62.7922H40.9515C41.632 62.7922 41.964 62.4919 41.9459 61.9953C41.927 61.4929 41.5725 61.2 40.8937 61.2ZM42.0744 64.9064L41.0998 63.6333H40.076L40.1235 64.9064H39.01L38.8418 60.3385H40.923C42.209 60.3385 43.0353 60.9717 43.0724 61.9953C43.0991 62.6809 42.7532 63.1833 42.1366 63.4377L43.2699 64.9064H42.0744Z" fill="#C1C4CA"/>
<path d="M45.6226 62.622C45.5717 61.2458 46.6472 60.2599 48.1445 60.2599C48.976 60.2599 49.6815 60.5471 50.1533 61.0691L49.4624 61.6958C49.1269 61.3432 48.7146 61.1607 48.2342 61.1607C47.3338 61.1607 46.7171 61.7604 46.749 62.622C46.7809 63.4835 47.4416 64.0841 48.342 64.0841C48.8225 64.0841 49.2209 63.9008 49.5306 63.5424L50.268 64.1683C49.8342 64.6969 49.1511 64.9849 48.3136 64.9849C46.8223 64.9849 45.6726 63.999 45.6226 62.622Z" fill="#C1C4CA"/>
<path d="M54.6945 62.622C54.6626 61.7547 53.995 61.1607 53.136 61.1607C52.2769 61.1607 51.6542 61.7547 51.6861 62.622C51.718 63.4901 52.3847 64.0841 53.2438 64.0841C54.1028 64.0841 54.7264 63.4901 54.6945 62.622ZM50.5588 62.622C50.5088 61.2646 51.5843 60.2599 53.1023 60.2599C54.6134 60.2599 55.7709 61.2589 55.8218 62.622C55.8718 63.9859 54.7885 64.9849 53.2774 64.9849C51.7594 64.9849 50.6097 63.9794 50.5588 62.622Z" fill="#C1C4CA"/>
<path d="M58.8456 64.0383C59.8004 64.0383 60.405 63.4967 60.3731 62.622C60.3412 61.7482 59.6961 61.2066 58.7404 61.2066H57.7244L57.8287 64.0383H58.8456ZM56.5798 60.3385H58.7645C60.3369 60.3385 61.4486 61.2393 61.5004 62.622C61.5513 64.0056 60.5051 64.9064 58.9327 64.9064H56.748L56.5798 60.3385Z" fill="#C1C4CA"/>
<path d="M66.1191 64.0571L66.1501 64.9064H62.4267L62.2585 60.3385H65.8923L65.9242 61.1869H63.3953L63.4315 62.1786H65.6646L65.6956 63.0008H63.4626L63.5014 64.0571H66.1191Z" fill="#C1C4CA"/>
<path d="M1.05217 42.5013L2.58182 62.2775C2.59932 62.5034 2.80615 62.6719 3.04368 62.6564C3.28121 62.6392 3.45941 62.4428 3.4419 62.2178L1.91269 42.4415C1.89518 42.2165 1.68826 42.0472 1.45073 42.0635C1.2132 42.0799 1.035 42.2763 1.05217 42.5013Z" fill="#D4D4D4"/>
<path d="M0.355677 33.4931L0.758985 38.7115C0.776493 38.9365 0.983319 39.1058 1.22085 39.0895C1.45838 39.0723 1.63666 38.8768 1.61941 38.6509L1.21585 33.4326C1.19834 33.2076 0.991769 33.0382 0.754236 33.0546C0.516704 33.0718 0.338169 33.2673 0.355677 33.4931Z" fill="#D4D4D4"/>
<path d="M42.1503 13.7995V1.75991C42.1503 1.53327 41.9571 1.35082 41.7191 1.35082C41.481 1.35082 41.2878 1.53327 41.2878 1.75991V13.7995C41.2878 14.0253 41.481 14.2086 41.7191 14.2086C41.9571 14.2086 42.1503 14.0253 42.1503 13.7995Z" fill="#D4D4D4"/>
<path d="M32.0451 16.1427L25.7015 5.72235C25.5824 5.5268 25.3185 5.4597 25.1124 5.57261C24.9062 5.68552 24.8355 5.93589 24.9545 6.13144L31.2982 16.5518C31.4172 16.7473 31.6812 16.8144 31.8873 16.7015C32.0934 16.5878 32.1642 16.3382 32.0451 16.1427Z" fill="#D4D4D4"/>
<path d="M57.7364 5.7224L51.3927 16.1477C51.2737 16.3432 51.3444 16.5928 51.5514 16.7065C51.7576 16.8186 52.0215 16.7515 52.1405 16.5559L58.4833 6.13149C58.6024 5.93594 58.5316 5.68557 58.3255 5.57266C58.1194 5.45975 57.8554 5.52685 57.7364 5.7224Z" fill="#D4D4D4"/>
<path d="M41.3041 40.7934L41.547 42.7173C41.569 42.8907 41.734 43.0288 41.9162 43.026C42.0981 43.0232 42.228 42.8806 42.206 42.7072L41.963 40.7833C41.8848 40.1621 42.3514 39.648 43.0033 39.638L43.7258 39.6269C44.3777 39.6169 44.9719 40.1147 45.0505 40.7359L45.263 42.5231L45.922 42.5129L45.7098 40.7258C45.5873 39.7582 44.6616 38.9834 43.6463 38.999L42.9243 39.0101C41.909 39.0257 41.1819 39.8258 41.3041 40.7934Z" fill="#C1C4CA"/>
<path d="M40.8915 42.4661L41.3744 46.5343C41.4046 46.7918 41.6646 47 41.9552 47H46.5485C46.8387 47 47.0493 46.7918 47.0191 46.5343L46.5366 42.4661C46.517 42.2994 46.4007 42.1532 46.2437 42.0713C46.1572 42.0261 46.0583 42 45.9558 42H41.3625C41.2627 42 41.173 42.0244 41.0988 42.0668C40.956 42.1483 40.8718 42.2966 40.8915 42.4661Z" fill="#C1C4CA"/>
<path d="M61.6299 81L61.7452 82.6164L63.2937 82.0552L63.6449 82.8536L62.0633 83.3636L63.1678 84.72L62.4542 85.2308L61.3789 83.8212L60.5198 85.2308L59.7552 84.72L60.651 83.3636L59.011 82.8536L59.2473 82.06L60.8906 82.6008L60.7766 81H61.6299Z" fill="#C1C4CA"/>
<path d="M52.1815 81L52.2968 82.6164L53.8461 82.0552L54.1973 82.8536L52.6153 83.3636L53.7202 84.72L53.0062 85.2308L51.9309 83.8212L51.0714 85.2308L50.3068 84.72L51.203 83.3636L49.563 82.8536L49.7993 82.06L51.4431 82.6008L51.3282 81H52.1815Z" fill="#C1C4CA"/>
<path d="M42.733 81L42.8487 82.6164L44.3972 82.0552L44.7488 82.8536L43.1669 83.3636L44.2717 84.72L43.5573 85.2308L42.4824 83.8212L41.6233 85.2308L40.8587 84.72L41.7546 83.3636L40.1145 82.8536L40.3508 82.06L41.9942 82.6008L41.8797 81H42.733Z" fill="#C1C4CA"/>
<path d="M33.2848 81L33.4006 82.6164L34.9492 82.0552L35.3004 82.8536L33.7188 83.3636L34.8232 84.72L34.1098 85.2308L33.0344 83.8212L32.1751 85.2308L31.4103 84.72L32.3064 83.3636L30.6665 82.8536L30.9024 82.06L32.5461 82.6008L32.4319 81H33.2848Z" fill="#C1C4CA"/>
<path d="M71.5554 66.5H80.7554L84.3332 119.5H74.6221L71.5554 66.5Z" fill="#E4E4E4"/>
</svg>
