<svg width="174" height="180" viewBox="0 0 174 180" fill="none" xmlns="http://www.w3.org/2000/svg">
<g clip-path="url(#clip0_69_147)">
<path d="M43.7691 79.7203L44.9435 93.1563C45.1368 95.3617 43.5055 97.3049 41.2999 97.4982C39.0954 97.6901 37.1516 96.0602 36.9589 93.8548L35.7834 80.4188C34.0283 79.3381 32.7761 77.4886 32.5834 75.2773C32.2578 71.565 35.0047 68.2921 38.7167 67.967C42.4291 67.6434 45.7021 70.3891 46.0272 74.1014C46.2205 76.3126 45.3082 78.3511 43.7691 79.7203ZM64.0672 49.6561L16.2816 53.8369L15.3033 42.6562C14.2885 31.0552 22.9011 20.7911 34.5008 19.7763C46.1004 18.7629 56.3644 27.3737 57.3793 38.9732L57.9475 45.4722L64.8419 44.8689L64.2737 38.3713C62.9264 22.9687 49.3001 11.5346 33.8974 12.8819C18.4953 14.2306 7.06211 27.8554 8.40921 43.2595L9.39315 54.5047C3.83294 55.5869 -0.125493 60.7152 0.378995 66.485L3.79282 105.501C4.33289 111.671 9.77126 116.235 15.9407 115.695L69.4357 111.015C75.6038 110.474 80.1684 105.037 79.628 98.8675L76.2145 59.8498C75.6756 53.6802 70.2353 49.1172 64.0672 49.6561Z" fill="#C1C4CA"/>
<path d="M136.992 49.1465C130.449 48.9634 124.992 43.5085 124.806 36.9655C124.616 30.3713 129.544 24.8637 135.904 24.13C136.672 24.0407 137.352 24.644 137.352 25.4172C137.352 26.0674 136.867 26.6137 136.221 26.6869C130.614 27.3224 126.4 32.6265 127.574 38.6072C128.337 42.4908 131.466 45.6202 135.352 46.3787C141.726 47.6264 147.329 42.7558 147.329 36.5994C147.329 34.539 146.693 32.543 145.523 30.8736C145.154 30.3464 145.254 29.6259 145.737 29.1998C146.316 28.6872 147.216 28.7956 147.658 29.4297C149.115 31.5238 149.906 34.0206 149.906 36.5994C149.906 43.6403 144.078 49.3471 136.992 49.1465ZM168.595 55.7993L165.287 55.0071C164.594 54.8416 164.167 54.146 164.334 53.4548C164.499 52.7621 165.195 52.336 165.886 52.5014L167.317 52.8441C168.45 50.7573 169.361 48.5636 170.032 46.3026L162.341 41.5843L162.48 40.7306C162.726 39.2222 162.846 37.8705 162.846 36.5994C162.846 35.3283 162.726 33.9767 162.48 32.4669L162.341 31.6132L170.032 26.8963C169.361 24.6352 168.45 22.4416 167.317 20.3548L158.552 22.4533L158.045 21.7518C156.427 19.5025 154.455 17.5299 152.207 15.9118L151.498 15.4021L153.598 6.63622C151.511 5.50131 149.318 4.59044 147.055 3.91827L142.338 11.6108L141.484 11.4717C138.749 11.028 135.958 11.028 133.221 11.4717L132.369 11.6108L127.65 3.91975C127.357 4.00761 127.064 4.09842 126.772 4.1936C126.118 4.40594 125.417 4.05594 125.18 3.4116C124.932 2.73358 125.284 1.96914 125.969 1.74509C126.612 1.53421 127.261 1.34385 127.906 1.17105L128.835 0.923576L133.666 8.80062C136.295 8.43599 138.412 8.43599 141.039 8.80062L145.87 0.923576L146.799 1.16959C149.912 1.99844 152.914 3.24612 155.724 4.87454L156.553 5.35634L154.403 14.3332C156.366 15.8371 158.116 17.5871 159.62 19.5494L168.595 17.3996L169.077 18.2285C170.707 21.0372 171.953 24.0407 172.782 27.154L173.028 28.081L165.152 32.9121C165.334 34.2242 165.422 35.4382 165.422 36.5994C165.422 37.7622 165.334 38.9733 165.152 40.2868L173.028 45.1164L172.782 46.0449C171.953 49.1582 170.707 52.1617 169.077 54.9704L168.595 55.7993ZM116.262 55.0817C115.854 54.6175 115.463 54.1401 115.087 53.6495L106.11 55.7993L105.63 54.9704C104 52.1617 102.752 49.1582 101.925 46.0449L101.677 45.1164L109.555 40.2868C109.371 38.9733 109.284 37.7622 109.284 36.5994C109.284 35.4382 109.371 34.2242 109.555 32.9121L101.677 28.081L101.925 27.154C102.752 24.0407 104 21.0372 105.63 18.2285L106.11 17.3996L115.087 19.5494C116.591 17.5871 118.341 15.8371 120.302 14.3332L118.675 7.53975C118.509 6.85001 118.936 6.15588 119.625 5.9904L119.63 5.98893C120.321 5.82346 121.015 6.24963 121.18 6.93937L123.209 15.4021L122.5 15.9118C120.251 17.5299 118.278 19.5025 116.66 21.7518L116.155 22.4533L107.39 20.3548C106.255 22.4416 105.344 24.6352 104.674 26.8963L112.365 31.6132L112.226 32.4669C111.98 33.9767 111.861 35.3283 111.861 36.5994C111.861 37.8705 111.98 39.2222 112.226 40.7306L112.365 41.5843L104.674 46.3026C105.344 48.5636 106.255 50.7573 107.39 52.8441L116.155 50.7442L116.66 51.4471C117.136 52.109 117.647 52.7518 118.186 53.3684C118.634 53.8809 118.622 54.6468 118.132 55.1184L118.085 55.1637C117.565 55.6645 116.736 55.6221 116.262 55.0817ZM145.872 72.2739L141.039 64.3997C138.424 64.76 136.283 64.76 133.666 64.3997L128.835 72.2739L127.908 72.0279C124.795 71.2005 121.791 69.9542 118.982 68.3229L118.152 67.8411L120.201 59.2919C120.366 58.5992 121.062 58.1731 121.755 58.3386C122.446 58.5055 122.872 59.1996 122.706 59.8923L121.107 66.5612C123.194 67.6976 125.388 68.6085 127.65 69.2792L132.369 61.5866L133.222 61.7257C135.958 62.1724 138.749 62.1724 141.484 61.7257L142.338 61.5866L147.057 69.2792C149.318 68.607 151.511 67.6976 153.598 66.5612L151.498 57.7982L152.201 57.293C154.116 55.9164 155.822 54.2909 157.288 52.4487C157.723 51.901 158.498 51.7722 159.066 52.1793C159.653 52.604 159.792 53.4372 159.341 54.0054C157.9 55.8256 156.246 57.4541 154.403 58.8657L156.553 67.8411L155.724 68.3229C152.916 69.9542 149.912 71.2005 146.799 72.0279L145.872 72.2739Z" fill="#D4D4D4"/>
<path d="M49.1493 164.527C44.923 164.407 41.3983 160.885 41.2771 156.657C41.1552 152.397 44.3387 148.84 48.4478 148.364C48.9428 148.307 49.3836 148.697 49.3836 149.196V149.198C49.3836 149.616 49.0702 149.971 48.6528 150.018C45.0299 150.428 42.3079 153.854 43.0661 157.719C43.5582 160.228 45.5805 162.248 48.0905 162.739C52.2084 163.544 55.8284 160.397 55.8284 156.42C55.8284 155.089 55.4184 153.8 54.6613 152.722C54.4226 152.381 54.4885 151.916 54.799 151.64C55.1739 151.309 55.7552 151.38 56.0408 151.79C56.9824 153.141 57.492 154.755 57.492 156.42C57.492 160.97 53.727 164.656 49.1493 164.527ZM69.566 168.825L67.428 168.313C66.9814 168.206 66.7061 167.758 66.813 167.309C66.9199 166.863 67.3694 166.587 67.8175 166.694L68.7401 166.915C69.4723 165.567 70.061 164.151 70.4945 162.689L65.5258 159.64L65.6165 159.09C65.7747 158.116 65.8523 157.242 65.8523 156.42C65.8523 155.6 65.7747 154.727 65.6165 153.752L65.5258 153.2L70.4945 150.152C70.061 148.691 69.4723 147.275 68.7401 145.926L63.0773 147.282L62.7522 146.83C61.7051 145.376 60.4325 144.102 58.9784 143.056L58.5215 142.726L59.8775 137.064C58.5288 136.331 57.1127 135.743 55.6513 135.308L52.6038 140.276L52.0517 140.187C50.2842 139.902 48.4815 139.902 46.714 140.187L46.1619 140.276L43.1145 135.309C42.9256 135.365 42.7367 135.425 42.5476 135.485C42.126 135.624 41.6713 135.397 41.519 134.98C41.3584 134.542 41.5861 134.05 42.0288 133.903C42.4447 133.769 42.8641 133.644 43.2799 133.533L43.8804 133.373L47.001 138.462C48.6997 138.226 50.0675 138.226 51.7647 138.462L54.8854 133.373L55.4858 133.533C57.4964 134.067 59.4367 134.874 61.2511 135.926L61.7871 136.238L60.3989 142.037C61.6656 143.009 62.7961 144.138 63.767 145.406L69.566 144.017L69.8765 144.553C70.9309 146.367 71.7363 148.307 72.2708 150.319L72.4304 150.918L67.3416 154.038C67.4588 154.887 67.5159 155.67 67.5159 156.42C67.5159 157.171 67.4588 157.955 67.3416 158.803L72.4304 161.923L72.2708 162.522C71.7363 164.534 70.9309 166.475 69.8765 168.289L69.566 168.825ZM35.7576 168.361C35.495 168.062 35.2415 167.753 34.9984 167.435L29.1997 168.825L28.8891 168.289C27.836 166.475 27.03 164.534 26.4952 162.522L26.3362 161.923L31.4244 158.803C31.3065 157.955 31.2498 157.171 31.2498 156.42C31.2498 155.67 31.3065 154.887 31.4244 154.038L26.3362 150.918L26.4952 150.319C27.03 148.307 27.836 146.367 28.8891 144.553L29.1997 144.017L34.9984 145.406C35.9704 144.138 37.1002 143.009 38.3689 142.037L37.3169 137.648C37.2094 137.201 37.4851 136.753 37.9312 136.646L37.9335 136.645C38.3803 136.539 38.8287 136.813 38.9358 137.26L40.2457 142.726L39.7881 143.056C38.3351 144.102 37.0606 145.376 36.015 146.83L35.6889 147.282L30.0263 145.926C29.293 147.275 28.705 148.691 28.2714 150.152L33.24 153.2L33.1502 153.752C32.9912 154.727 32.9146 155.6 32.9146 156.42C32.9146 157.242 32.9912 158.116 33.1502 159.09L33.24 159.64L28.2714 162.689C28.705 164.151 29.293 165.567 30.0263 166.915L35.6889 165.559L36.015 166.013C36.3227 166.441 36.6522 166.855 37.0006 167.254C37.2905 167.585 37.2826 168.08 36.9657 168.384L36.9348 168.414C36.5996 168.737 36.0641 168.711 35.7576 168.361ZM54.8854 179.468L51.7662 174.381C50.0748 174.614 48.6909 174.614 47.001 174.381L43.8804 179.468L43.2814 179.309C41.2696 178.774 39.3293 177.969 37.5149 176.916L36.9789 176.604L38.302 171.08C38.4095 170.634 38.8591 170.357 39.3058 170.465C39.7532 170.572 40.0284 171.022 39.9207 171.468L38.8883 175.777C40.2372 176.512 41.6534 177.099 43.1145 177.532L46.1619 172.562L46.714 172.653C48.4815 172.942 50.2842 172.942 52.0517 172.653L52.6038 172.562L55.6513 177.532C57.1127 177.099 58.5288 176.512 59.8775 175.777L58.5215 170.115L58.974 169.79C60.2129 168.9 61.3156 167.85 62.2616 166.659C62.5428 166.306 63.0436 166.223 63.4097 166.486C63.7904 166.759 63.8798 167.299 63.5883 167.667C62.657 168.841 61.588 169.894 60.3989 170.806L61.7871 176.604L61.2511 176.916C59.4367 177.969 57.4964 178.774 55.4858 179.309L54.8854 179.468Z" fill="#D4D4D4"/>
<path d="M135.554 127.96C137.75 131.862 136.475 136.983 132.704 139.399C128.903 141.833 123.938 140.883 121.265 137.413C120.943 136.994 121.056 136.382 121.509 136.109L121.511 136.109C121.891 135.88 122.383 135.971 122.654 136.325C125.002 139.39 129.597 139.992 132.691 137.196C134.7 135.381 135.432 132.443 134.508 129.897C132.993 125.719 128.162 124.15 124.552 126.319C123.343 127.045 122.397 128.12 121.832 129.395C121.652 129.798 121.193 129.992 120.774 129.861C120.269 129.701 120.016 129.135 120.233 128.652C120.946 127.06 122.133 125.717 123.644 124.809C127.774 122.327 133.174 123.735 135.554 127.96ZM128.319 107.083L129.02 109.303C129.167 109.767 128.91 110.262 128.445 110.409C127.981 110.555 127.486 110.298 127.339 109.832L127.036 108.874C125.413 108.945 123.806 109.183 122.243 109.587L122.186 115.76L121.636 115.978C120.666 116.366 119.83 116.772 119.084 117.22C118.34 117.667 117.59 118.214 116.791 118.889L116.339 119.273L110.863 116.425C109.773 117.615 108.808 118.922 107.984 120.322L112.303 124.723L112.07 125.265C111.321 127.009 110.858 128.859 110.702 130.749L110.653 131.343L104.772 133.201C104.843 134.825 105.081 136.431 105.484 137.995L111.656 138.051L111.876 138.601C112.581 140.361 113.564 141.998 114.788 143.447L115.17 143.899L112.323 149.374C112.476 149.516 112.634 149.654 112.792 149.793C113.148 150.1 113.19 150.637 112.894 151.002C112.584 151.387 112.013 151.449 111.639 151.127C111.29 150.823 110.948 150.51 110.62 150.193L110.148 149.735L113.065 144.127C111.925 142.714 111.179 141.472 110.467 139.803L104.146 139.746L103.963 139.113C103.351 136.997 103.026 134.795 102.99 132.575L102.981 131.918L109.002 130.016C109.194 128.335 109.602 126.693 110.224 125.12L105.8 120.614L106.117 120.04C107.189 118.093 108.511 116.304 110.046 114.721L110.502 114.25L116.109 117.168C116.816 116.598 117.496 116.119 118.177 115.71C118.859 115.3 119.601 114.925 120.435 114.569L120.492 108.247L121.123 108.066C123.241 107.453 125.441 107.126 127.663 107.094L128.319 107.083ZM146.338 138.025C146.21 138.427 146.068 138.825 145.912 139.219L150.336 143.725L150.019 144.299C148.946 146.245 147.625 148.035 146.09 149.618L145.633 150.089L140.025 147.172C139.319 147.742 138.639 148.22 137.957 148.63C137.277 149.039 136.535 149.415 135.699 149.771L135.643 156.091L135.013 156.273C132.895 156.885 130.694 157.212 128.472 157.246L127.816 157.256L125.915 151.235C124.234 151.044 122.593 150.634 121.018 150.013L117.608 153.362C117.261 153.703 116.704 153.697 116.364 153.35L116.361 153.349C116.022 153.001 116.026 152.445 116.373 152.104L120.621 147.933L121.169 148.169C122.911 148.917 124.762 149.379 126.653 149.535L127.241 149.585L129.099 155.464C130.723 155.394 132.329 155.156 133.892 154.752L133.949 148.58L134.499 148.36C135.471 147.973 136.305 147.566 137.049 147.119C137.795 146.671 138.547 146.124 139.344 145.449L139.795 145.067L145.273 147.914C146.363 146.724 147.327 145.418 148.152 144.016L143.832 139.616L144.066 139.072C144.287 138.56 144.483 138.034 144.655 137.501C144.797 137.057 145.251 136.794 145.7 136.916L145.743 136.928C146.22 137.056 146.488 137.556 146.338 138.025ZM145.988 114.604L143.071 120.21C144.205 121.619 144.96 122.875 145.67 124.536L151.99 124.594L152.172 125.225C152.784 127.342 153.111 129.543 153.145 131.764L153.154 132.421L147.418 134.233C146.954 134.379 146.458 134.121 146.313 133.657C146.166 133.192 146.424 132.697 146.888 132.552L151.362 131.139C151.293 129.513 151.054 127.908 150.65 126.345L144.477 126.29L144.258 125.739C143.556 123.977 142.573 122.341 141.347 120.894L140.963 120.442L143.813 114.965C142.622 113.875 141.317 112.91 139.914 112.086L135.514 116.405L134.972 116.172C133.488 115.533 131.934 115.104 130.337 114.895C129.864 114.832 129.515 114.423 129.554 113.947C129.594 113.453 130.036 113.077 130.528 113.141C132.102 113.346 133.641 113.742 135.118 114.324L139.623 109.902L140.199 110.218C142.144 111.291 143.934 112.613 145.515 114.146L145.988 114.604Z" fill="#D4D4D4"/>
</g>
<defs>
<clipPath id="clip0_69_147">
<rect width="173.898" height="180" fill="white"/>
</clipPath>
</defs>
</svg>
