<svg width="25" height="24" viewBox="0 0 25 24" fill="none" xmlns="http://www.w3.org/2000/svg">
<path fill-rule="evenodd" clip-rule="evenodd" d="M10.25 11.25C9.00736 11.25 8 12.2574 8 13.5C8 14.7426 9.00736 15.75 10.25 15.75C11.4926 15.75 12.5 14.7426 12.5 13.5C12.5 12.2574 11.4926 11.25 10.25 11.25ZM6.5 13.5C6.5 11.4289 8.17893 9.75 10.25 9.75C12.3211 9.75 14 11.4289 14 13.5C14 15.5711 12.3211 17.25 10.25 17.25C8.17893 17.25 6.5 15.5711 6.5 13.5Z" fill="#2C1F63"/>
<path fill-rule="evenodd" clip-rule="evenodd" d="M3.18934 4.18934C3.47064 3.90804 3.85217 3.75 4.25 3.75H20.75C21.1478 3.75 21.5294 3.90804 21.8107 4.18934C22.092 4.47065 22.25 4.85218 22.25 5.25V18.75C22.25 19.1478 22.092 19.5294 21.8107 19.8107C21.5294 20.092 21.1478 20.25 20.75 20.25H14.9938C14.704 20.25 14.4402 20.0831 14.3161 19.8213C13.9512 19.0518 13.3754 18.4016 12.6556 17.9463C11.9359 17.491 11.1017 17.2493 10.25 17.2493C9.39832 17.2493 8.56413 17.491 7.84437 17.9463C7.1246 18.4016 6.54882 19.0518 6.18393 19.8213C6.0598 20.0831 5.79598 20.25 5.50625 20.25H4.25C3.85218 20.25 3.47065 20.092 3.18934 19.8107C2.90804 19.5294 2.75 19.1478 2.75 18.75V5.25C2.75 4.85217 2.90804 4.47064 3.18934 4.18934ZM20.75 5.25L4.25 5.25L4.25 18.75H5.05344C5.53779 17.9108 6.21956 17.1992 7.04249 16.6786C8.00218 16.0716 9.11443 15.7493 10.25 15.7493C11.3856 15.7493 12.4978 16.0716 13.4575 16.6786C14.2804 17.1992 14.9622 17.9108 15.4466 18.75H20.75V5.25Z" fill="#2C1F63"/>
<path fill-rule="evenodd" clip-rule="evenodd" d="M5.75 7.5C5.75 7.08579 6.08579 6.75 6.5 6.75H18.5C18.9142 6.75 19.25 7.08579 19.25 7.5V16.5C19.25 16.9142 18.9142 17.25 18.5 17.25H17C16.5858 17.25 16.25 16.9142 16.25 16.5C16.25 16.0858 16.5858 15.75 17 15.75H17.75V8.25H7.25V9C7.25 9.41421 6.91421 9.75 6.5 9.75C6.08579 9.75 5.75 9.41421 5.75 9V7.5Z" fill="#2C1F63"/>
</svg>
