<svg width="24" height="25" viewBox="0 0 24 25" fill="none" xmlns="http://www.w3.org/2000/svg">
<path fill-rule="evenodd" clip-rule="evenodd" d="M12.5056 4.11844C10.5022 3.99289 8.52178 4.60292 6.93625 5.83402C5.35072 7.06512 4.26907 8.83263 3.89437 10.8047C3.51967 12.7768 3.87768 14.8178 4.9012 16.5447C5.00601 16.7215 5.03365 16.9336 4.97765 17.1314L4.09924 20.2338L7.2017 19.3554L7.40602 20.0771L7.78843 19.4319C9.51525 20.4554 11.5563 20.8134 13.5284 20.4387C15.5005 20.064 17.268 18.9824 18.4991 17.3968C19.7302 15.8113 20.3402 13.8309 20.2146 11.8275C20.0891 9.82407 19.2366 7.93535 17.8172 6.51593C16.3977 5.09651 14.509 4.244 12.5056 4.11844ZM7.30785 20.8844C9.28674 21.9692 11.5846 22.3349 13.8084 21.9124C16.1394 21.4694 18.2287 20.1909 19.6839 18.3168C21.139 16.4426 21.8601 14.1018 21.7117 11.7337C21.5633 9.36557 20.5556 7.13306 18.8778 5.45527C17.2 3.77748 14.9675 2.76979 12.5994 2.62138C10.2313 2.47297 7.89045 3.19405 6.01631 4.64924C4.14218 6.10443 2.86364 8.19366 2.42074 10.5247C1.99822 12.7484 2.36388 15.0464 3.44874 17.0252L2.65386 19.8327C2.57982 20.0883 2.57553 20.359 2.64149 20.6169C2.70775 20.876 2.84249 21.1124 3.03158 21.3015C3.22067 21.4906 3.45714 21.6253 3.71621 21.6916C3.97405 21.7576 4.24484 21.7533 4.50044 21.6792L7.30785 20.8844Z" fill="#490B99"/>
<path d="M12 13.4584C12.6213 13.4584 13.125 12.9547 13.125 12.3334C13.125 11.7121 12.6213 11.2084 12 11.2084C11.3787 11.2084 10.875 11.7121 10.875 12.3334C10.875 12.9547 11.3787 13.4584 12 13.4584Z" fill="#490B99"/>
<path d="M7.5 13.4584C8.12132 13.4584 8.625 12.9547 8.625 12.3334C8.625 11.7121 8.12132 11.2084 7.5 11.2084C6.87868 11.2084 6.375 11.7121 6.375 12.3334C6.375 12.9547 6.87868 13.4584 7.5 13.4584Z" fill="#490B99"/>
<path d="M16.5 13.4584C17.1213 13.4584 17.625 12.9547 17.625 12.3334C17.625 11.7121 17.1213 11.2084 16.5 11.2084C15.8787 11.2084 15.375 11.7121 15.375 12.3334C15.375 12.9547 15.8787 13.4584 16.5 13.4584Z" fill="#490B99"/>
</svg>
