<svg width="24" height="25" viewBox="0 0 24 25" fill="none" xmlns="http://www.w3.org/2000/svg">
<path fill-rule="evenodd" clip-rule="evenodd" d="M7.5 3.66663C7.08579 3.66663 6.75 4.00241 6.75 4.41663V20.9166C6.75 21.3308 7.08579 21.6666 7.5 21.6666H16.5C16.9142 21.6666 17.25 21.3308 17.25 20.9166V4.41663C17.25 4.00241 16.9142 3.66663 16.5 3.66663H7.5ZM5.25 4.41663C5.25 3.17399 6.25736 2.16663 7.5 2.16663H16.5C17.7426 2.16663 18.75 3.17399 18.75 4.41663V20.9166C18.75 22.1593 17.7426 23.1666 16.5 23.1666H7.5C6.25736 23.1666 5.25 22.1593 5.25 20.9166V4.41663Z" fill="#490B99"/>
<path fill-rule="evenodd" clip-rule="evenodd" d="M5.25 5.91663C5.25 5.50241 5.58579 5.16663 6 5.16663H18C18.4142 5.16663 18.75 5.50241 18.75 5.91663C18.75 6.33084 18.4142 6.66663 18 6.66663H6C5.58579 6.66663 5.25 6.33084 5.25 5.91663Z" fill="#490B99"/>
<path fill-rule="evenodd" clip-rule="evenodd" d="M5.25 19.4166C5.25 19.0024 5.58579 18.6666 6 18.6666H18C18.4142 18.6666 18.75 19.0024 18.75 19.4166C18.75 19.8308 18.4142 20.1666 18 20.1666H6C5.58579 20.1666 5.25 19.8308 5.25 19.4166Z" fill="#490B99"/>
</svg>
