<svg width="25" height="25" viewBox="0 0 25 25" fill="none" xmlns="http://www.w3.org/2000/svg">
<path fill-rule="evenodd" clip-rule="evenodd" d="M9.5 17.4001L14.85 19.2751C15.0667 19.3591 15.2833 19.3967 15.5 19.3881C15.7167 19.3794 15.9333 19.3417 16.15 19.2751L17.3798 18.8585C16.2454 17.4844 15.0513 14.9145 16.5 12.5C17.685 10.9199 19.5982 10.2761 21.5 11.0616V2.75006C21.5 2.40072 21.3583 2.12172 21.075 1.91306C20.7917 1.70439 20.4833 1.66672 20.15 1.80006L15.5 3.60006L10.15 1.72506C9.93333 1.64106 9.71667 1.60339 9.5 1.61206C9.28333 1.62072 9.06667 1.65839 8.85 1.72506L4.2 3.30006C3.984 3.38339 3.81333 3.50839 3.688 3.67506C3.56267 3.84172 3.5 4.03339 3.5 4.25006V18.2501C3.5 18.6007 3.64167 18.8801 3.925 19.0881C4.20833 19.2961 4.51667 19.3334 4.85 19.2001L9.5 17.4001ZM14.5 5.35006V17.0501L10.5 15.6501V3.95006L14.5 5.35006Z" fill="#C9C9C9"/>
<path d="M20 16C20.2406 16 20.4467 15.9118 20.6182 15.7354C20.7897 15.559 20.8753 15.3472 20.875 15.1C20.875 14.8525 20.7892 14.6405 20.6177 14.4641C20.4462 14.2877 20.2403 14.1997 20 14.2C19.7594 14.2 19.5533 14.2882 19.3818 14.4646C19.2103 14.641 19.1247 14.8528 19.125 15.1C19.125 15.3475 19.2108 15.5594 19.3823 15.7358C19.5538 15.9122 19.7597 16.0003 20 16ZM20 20.5C18.826 19.4725 17.9493 18.5182 17.3697 17.6371C16.7902 16.756 16.5003 15.9403 16.5 15.19C16.5 14.065 16.8519 13.1687 17.5557 12.5012C18.2595 11.8337 19.0743 11.5 20 11.5C20.926 11.5 21.741 11.8337 22.4447 12.5012C23.1485 13.1687 23.5003 14.065 23.5 15.19C23.5 15.94 23.2101 16.7557 22.6302 17.6371C22.0504 18.5185 21.1737 19.4728 20 20.5Z" fill="#E3E3E3"/>
<path d="M14.1812 4.93159L11.1812 3.76492C10.8535 3.63745 10.5 3.87924 10.5 4.23092V15.6024C10.5 15.8086 10.6266 15.9937 10.8188 16.0684L13.8188 17.2351C14.1465 17.3625 14.5 17.1208 14.5 16.7691V5.39759C14.5 5.19138 14.3734 5.00633 14.1812 4.93159Z" fill="#E4E4E4"/>
</svg>
