<svg width="24" height="24" viewBox="0 0 24 24" fill="none" xmlns="http://www.w3.org/2000/svg">
<path fill-rule="evenodd" clip-rule="evenodd" d="M3.75 3.75C4.16421 3.75 4.5 4.08579 4.5 4.5V20.25C4.5 20.6642 4.16421 21 3.75 21C3.33579 21 3 20.6642 3 20.25V4.5C3 4.08579 3.33579 3.75 3.75 3.75Z" fill="#2C1F63"/>
<path fill-rule="evenodd" clip-rule="evenodd" d="M16.0616 5.01964C17.2374 5.14128 18.4545 4.9092 19.8 3.90004C20.0273 3.72959 20.3314 3.70217 20.5855 3.82922C20.8395 3.95626 21 4.21596 21 4.50004V15.75C21 15.9861 20.8889 16.2084 20.7 16.35C19.0456 17.5909 17.4502 17.9213 15.9072 17.7617C14.4339 17.6093 13.0324 17.0086 11.7556 16.4613L11.7046 16.4394C10.3701 15.8675 9.16423 15.3572 7.93849 15.2304C6.76271 15.1088 5.54559 15.3409 4.20004 16.35C3.86867 16.5986 3.39857 16.5314 3.15004 16.2C2.90152 15.8687 2.96867 15.3986 3.30004 15.15C4.9545 13.9092 6.54988 13.5788 8.09284 13.7384C9.56622 13.8908 10.9677 14.4915 12.2445 15.0388L12.2955 15.0607C13.63 15.6326 14.8359 16.1428 16.0616 16.2696C17.1494 16.3822 18.2725 16.192 19.5 15.3637V5.85153C18.2706 6.4729 17.0739 6.63237 15.9072 6.51168C14.4339 6.35926 13.0324 5.75855 11.7556 5.21126L11.7046 5.1894C10.3701 4.61745 9.16423 4.10723 7.93849 3.98043C6.76271 3.8588 5.54559 4.09088 4.20004 5.10004C3.86867 5.34857 3.39857 5.28141 3.15004 4.95004C2.90152 4.61867 2.96867 4.14857 3.30004 3.90004C4.9545 2.6592 6.54988 2.32878 8.09284 2.48839C9.56622 2.64081 10.9677 3.24152 12.2445 3.78882L12.2955 3.81068C13.63 4.38262 14.8359 4.89285 16.0616 5.01964Z" fill="#2C1F63"/>
</svg>
