<svg width="25" height="24" viewBox="0 0 25 24" fill="none" xmlns="http://www.w3.org/2000/svg">
<path fill-rule="evenodd" clip-rule="evenodd" d="M12.6666 10.125C11.6311 10.125 10.7916 10.9645 10.7916 12C10.7916 13.0355 11.6311 13.875 12.6666 13.875C13.7022 13.875 14.5416 13.0355 14.5416 12C14.5416 10.9645 13.7022 10.125 12.6666 10.125ZM9.29163 12C9.29163 10.136 10.8027 8.625 12.6666 8.625C14.5306 8.625 16.0416 10.136 16.0416 12C16.0416 13.864 14.5306 15.375 12.6666 15.375C10.8027 15.375 9.29163 13.864 9.29163 12Z" fill="#2C1F63"/>
<path fill-rule="evenodd" clip-rule="evenodd" d="M12.6666 3.375C12.1693 3.375 11.6924 3.57254 11.3408 3.92417C10.9892 4.27581 10.7916 4.75272 10.7916 5.25C10.7916 5.71424 10.9391 6.36485 11.1978 7.12145C11.4513 7.86288 11.79 8.64585 12.1256 9.35375C12.303 9.72804 12.1434 10.1753 11.7691 10.3527C11.3948 10.5301 10.9476 10.3705 10.7702 9.99625C10.4213 9.2604 10.057 8.42149 9.77844 7.60668C9.50506 6.80703 9.29163 5.96701 9.29163 5.25C9.29163 4.35489 9.64721 3.49645 10.2801 2.86351C10.9131 2.23058 11.7715 1.875 12.6666 1.875C13.5617 1.875 14.4202 2.23058 15.0531 2.86351C15.686 3.49645 16.0416 4.35489 16.0416 5.25C16.0416 5.96701 15.8282 6.80703 15.5548 7.60668C15.2763 8.42149 14.9119 9.2604 14.5631 9.99625C14.3857 10.3705 13.9384 10.5301 13.5641 10.3527C13.1898 10.1753 13.0302 9.72804 13.2077 9.35375C13.5432 8.64585 13.882 7.86288 14.1355 7.12145C14.3941 6.36485 14.5416 5.71424 14.5416 5.25C14.5416 4.75272 14.3441 4.27581 13.9925 3.92417C13.6408 3.57254 13.1639 3.375 12.6666 3.375Z" fill="#2C1F63"/>
<path fill-rule="evenodd" clip-rule="evenodd" d="M7.77393 7.01717C7.35001 6.80705 6.86207 6.76489 6.40805 6.89957C5.94838 7.03593 5.55841 7.34321 5.31831 7.75823C5.07821 8.17326 5.00623 8.6645 5.11717 9.13096C5.22652 9.59077 5.50541 9.99206 5.89765 10.2549C6.30053 10.4827 6.93107 10.6781 7.70366 10.8306C8.47237 10.9824 9.31976 11.0801 10.0988 11.1397C10.5118 11.1713 10.821 11.5317 10.7894 11.9447C10.7579 12.3577 10.3975 12.6669 9.98444 12.6353C9.16975 12.573 8.25933 12.4693 7.41319 12.3022C6.58269 12.1383 5.74874 11.9014 5.12882 11.5431C5.11685 11.5362 5.10508 11.529 5.09351 11.5214C4.3713 11.0489 3.85755 10.3176 3.65787 9.47801C3.45819 8.63838 3.58775 7.75415 4.01993 7.0071C4.4521 6.26005 5.15405 5.70696 5.98146 5.46151C6.80887 5.21606 7.69888 5.29692 8.46851 5.68746C8.47912 5.69284 8.4896 5.69848 8.49994 5.70436C9.12306 6.0588 9.74546 6.66376 10.3018 7.30082C10.8691 7.95039 11.4146 8.68839 11.8783 9.36245C12.1131 9.7037 12.0267 10.1707 11.6855 10.4054C11.3442 10.6402 10.8772 10.5539 10.6425 10.2126C10.1968 9.56479 9.68756 8.87779 9.17205 8.28752C8.65246 7.69258 8.16979 7.24674 7.77393 7.01717Z" fill="#2C1F63"/>
<path fill-rule="evenodd" clip-rule="evenodd" d="M10.7895 12.0553C10.8211 12.4683 10.5119 12.8287 10.0989 12.8603C9.31981 12.9199 8.47242 13.0176 7.70372 13.1694C6.91937 13.3242 6.28144 13.5232 5.87949 13.7556C5.86769 13.7624 5.85571 13.7689 5.84356 13.775C5.61626 13.8904 5.41486 14.0508 5.25167 14.2467C5.08848 14.4425 4.96693 14.6695 4.89444 14.9138C4.82195 15.1582 4.80005 15.4148 4.83007 15.6679C4.86009 15.921 4.9414 16.1654 5.06904 16.386C5.19667 16.6066 5.36796 16.7989 5.57242 16.9511C5.77688 17.1033 6.01023 17.2122 6.2582 17.2712C6.50618 17.3302 6.76358 17.338 7.01467 17.2941C7.26576 17.2503 7.50527 17.1557 7.71856 17.0161C7.73157 17.0076 7.74485 16.9995 7.75836 16.9918C8.15712 16.765 8.64566 16.3153 9.1721 15.7125C9.68761 15.1222 10.1969 14.4352 10.6425 13.7874C10.8773 13.4461 11.3443 13.3598 11.6855 13.5946C12.0268 13.8293 12.1131 14.2963 11.8783 14.6375C11.4146 15.3116 10.8692 16.0496 10.3019 16.6992C9.75152 17.3294 9.13654 17.9281 8.52017 18.2841C8.14119 18.5283 7.71706 18.6941 7.27279 18.7717C6.82082 18.8507 6.35751 18.8367 5.91116 18.7305C5.4648 18.6244 5.04477 18.4283 4.67674 18.1543C4.30871 17.8804 4.0004 17.5343 3.77065 17.1371C3.5409 16.74 3.39454 16.3002 3.34051 15.8446C3.28647 15.389 3.3259 14.9271 3.45638 14.4873C3.58686 14.0474 3.80566 13.6388 4.0994 13.2863C4.38875 12.9391 4.74485 12.6536 5.14651 12.4467C5.76456 12.0941 6.59059 11.8601 7.41324 11.6978C8.25938 11.5307 9.1698 11.4269 9.98449 11.3646C10.3975 11.3331 10.7579 11.6423 10.7895 12.0553Z" fill="#2C1F63"/>
<path fill-rule="evenodd" clip-rule="evenodd" d="M11.7691 13.6473C12.1434 13.8247 12.303 14.272 12.1256 14.6463C11.79 15.3542 11.4513 16.1371 11.1978 16.8786C10.9391 17.6352 10.7916 18.2858 10.7916 18.75C10.7916 19.2473 10.9892 19.7242 11.3408 20.0758C11.6924 20.4275 12.1693 20.625 12.6666 20.625C13.1639 20.625 13.6408 20.4275 13.9925 20.0758C14.3441 19.7242 14.5416 19.2473 14.5416 18.75C14.5416 18.2858 14.3941 17.6352 14.1355 16.8786C13.882 16.1371 13.5432 15.3542 13.2077 14.6463C13.0302 14.272 13.1898 13.8247 13.5641 13.6473C13.9384 13.4699 14.3857 13.6295 14.5631 14.0038C14.9119 14.7396 15.2763 15.5785 15.5548 16.3933C15.8282 17.193 16.0416 18.033 16.0416 18.75C16.0416 19.6451 15.686 20.5036 15.0531 21.1365C14.4202 21.7694 13.5617 22.125 12.6666 22.125C11.7715 22.125 10.9131 21.7694 10.2801 21.1365C9.64721 20.5036 9.29163 19.6451 9.29163 18.75C9.29163 18.033 9.50506 17.193 9.77844 16.3933C10.057 15.5785 10.4213 14.7396 10.7702 14.0038C10.9476 13.6295 11.3948 13.4699 11.7691 13.6473Z" fill="#2C1F63"/>
<path fill-rule="evenodd" clip-rule="evenodd" d="M14.5438 12.0553C14.5753 11.6423 14.9358 11.3331 15.3488 11.3646C16.1635 11.4269 17.0739 11.5307 17.92 11.6978C18.7505 11.8617 19.5845 12.0986 20.2044 12.4569C20.2163 12.4638 20.2281 12.471 20.2397 12.4786C20.9619 12.9511 21.4757 13.6823 21.6753 14.522C21.875 15.3616 21.7455 16.2458 21.3133 16.9929C20.8811 17.7399 20.1792 18.293 19.3517 18.5385C18.5243 18.7839 17.6343 18.7031 16.8647 18.3125C16.8541 18.3071 16.8436 18.3015 16.8333 18.2956C16.2101 17.9412 15.5877 17.3362 15.0314 16.6992C14.4641 16.0496 13.9186 15.3116 13.4549 14.6375C13.2202 14.2963 13.3065 13.8293 13.6477 13.5946C13.989 13.3598 14.456 13.4461 14.6907 13.7874C15.1364 14.4352 15.6456 15.1222 16.1612 15.7125C16.6807 16.3074 17.1634 16.7532 17.5593 16.9828C17.9832 17.1929 18.4711 17.2351 18.9251 17.1004C19.3848 16.9641 19.7748 16.6568 20.0149 16.2418C20.255 15.8267 20.327 15.3355 20.216 14.869C20.1067 14.4092 19.8278 14.0079 19.4356 13.7451C19.0327 13.5173 18.4021 13.3219 17.6295 13.1694C16.8608 13.0176 16.0134 12.9199 15.2344 12.8603C14.8214 12.8287 14.5122 12.4683 14.5438 12.0553Z" fill="#2C1F63"/>
<path fill-rule="evenodd" clip-rule="evenodd" d="M17.5593 7.01717C17.1634 7.24674 16.6807 7.69258 16.1612 8.28752C15.6456 8.87779 15.1364 9.56479 14.6907 10.2126C14.456 10.5539 13.989 10.6402 13.6477 10.4054C13.3065 10.1707 13.2202 9.7037 13.4549 9.36245C13.9186 8.68839 14.4641 7.95039 15.0314 7.30082C15.5877 6.66376 16.2101 6.0588 16.8333 5.70436C16.8436 5.69848 16.8541 5.69284 16.8647 5.68746C17.6343 5.29692 18.5243 5.21606 19.3517 5.46151C20.1792 5.70696 20.8811 6.26005 21.3133 7.0071C21.7455 7.75415 21.875 8.63838 21.6753 9.47801C21.4757 10.3176 20.9619 11.0489 20.2397 11.5214C20.2281 11.529 20.2163 11.5362 20.2044 11.5431C19.5845 11.9014 18.7505 12.1383 17.92 12.3022C17.0739 12.4693 16.1635 12.573 15.3488 12.6353C14.9358 12.6669 14.5753 12.3577 14.5438 11.9447C14.5122 11.5317 14.8214 11.1713 15.2344 11.1397C16.0134 11.0801 16.8608 10.9824 17.6295 10.8306C18.4021 10.6781 19.0327 10.4827 19.4356 10.2549C19.8278 9.99206 20.1067 9.59077 20.216 9.13096C20.327 8.6645 20.255 8.17326 20.0149 7.75823C19.7748 7.34321 19.3848 7.03593 18.9251 6.89957C18.4711 6.76489 17.9832 6.80705 17.5593 7.01717Z" fill="#2C1F63"/>
</svg>
