<svg width="25" height="24" viewBox="0 0 25 24" fill="none" xmlns="http://www.w3.org/2000/svg">
<path fill-rule="evenodd" clip-rule="evenodd" d="M12.3334 3.75C7.77702 3.75 4.08337 7.44365 4.08337 12C4.08337 16.5563 7.77702 20.25 12.3334 20.25C16.8897 20.25 20.5834 16.5563 20.5834 12C20.5834 7.44365 16.8897 3.75 12.3334 3.75ZM2.58337 12C2.58337 6.61522 6.9486 2.25 12.3334 2.25C17.7182 2.25 22.0834 6.61522 22.0834 12C22.0834 17.3848 17.7182 21.75 12.3334 21.75C6.9486 21.75 2.58337 17.3848 2.58337 12Z" fill="#2C1F63"/>
<path fill-rule="evenodd" clip-rule="evenodd" d="M2.58337 12C2.58337 11.5858 2.91916 11.25 3.33337 11.25H21.3334C21.7476 11.25 22.0834 11.5858 22.0834 12C22.0834 12.4142 21.7476 12.75 21.3334 12.75H3.33337C2.91916 12.75 2.58337 12.4142 2.58337 12Z" fill="#2C1F63"/>
<path fill-rule="evenodd" clip-rule="evenodd" d="M10.3712 6.10368C9.74127 7.57447 9.33337 9.65863 9.33337 12C9.33337 14.3414 9.74127 16.4256 10.3712 17.8964C10.6867 18.6331 11.0431 19.1814 11.4007 19.5345C11.7551 19.8845 12.0694 20.0063 12.3334 20.0063C12.5973 20.0063 12.9116 19.8845 13.266 19.5345C13.6236 19.1814 13.9801 18.6331 14.2956 17.8964C14.9255 16.4256 15.3334 14.3414 15.3334 12C15.3334 9.65863 14.9255 7.57447 14.2956 6.10368C13.9801 5.36694 13.6236 4.81868 13.266 4.46551C12.9116 4.1155 12.5973 3.99377 12.3334 3.99377C12.0694 3.99377 11.7551 4.1155 11.4007 4.46551C11.0431 4.81868 10.6867 5.36694 10.3712 6.10368ZM10.3467 3.39826C10.8896 2.86208 11.5618 2.49377 12.3334 2.49377C13.105 2.49377 13.7772 2.86208 14.3201 3.39826C14.8597 3.93127 15.3114 4.66533 15.6745 5.51316C16.4018 7.21151 16.8334 9.50548 16.8334 12C16.8334 14.4946 16.4018 16.7885 15.6745 18.4869C15.3114 19.3347 14.8597 20.0688 14.3201 20.6018C13.7772 21.138 13.105 21.5063 12.3334 21.5063C11.5618 21.5063 10.8896 21.138 10.3467 20.6018C9.807 20.0688 9.35539 19.3347 8.99229 18.4869C8.26494 16.7885 7.83337 14.4946 7.83337 12C7.83337 9.50548 8.26494 7.21151 8.99229 5.51316C9.35539 4.66533 9.807 3.93127 10.3467 3.39826Z" fill="#2C1F63"/>
</svg>
