<svg width="24" height="25" viewBox="0 0 24 25" fill="none" xmlns="http://www.w3.org/2000/svg">
<path d="M6.125 21.5C5.54063 21.5 5.04019 21.2984 4.62369 20.8952C4.20719 20.492 3.99929 20.0079 4 19.4429V10.1857C4 9.86 4.07544 9.55143 4.22631 9.26C4.37719 8.96857 4.58509 8.72857 4.85 8.54L11.225 3.91143C11.4198 3.77429 11.6234 3.67143 11.8359 3.60286C12.0484 3.53429 12.2698 3.5 12.5 3.5C12.7302 3.5 12.9516 3.53429 13.1641 3.60286C13.3766 3.67143 13.5802 3.77429 13.775 3.91143L20.15 8.54C20.4156 8.72857 20.6239 8.96857 20.7747 9.26C20.9256 9.55143 21.0007 9.86 21 10.1857V19.4429C21 20.0086 20.7917 20.493 20.3752 20.8962C19.9587 21.2994 19.4587 21.5007 18.875 21.5H14.625V14.3H10.375V21.5H6.125Z" fill="#2C1F63"/>
<path d="M9 15.5C9 14.3954 9.89543 13.5 11 13.5H14C15.1046 13.5 16 14.3954 16 15.5V20.5H9V15.5Z" fill="#FFC351"/>
<rect x="2" y="9.71436" width="12.922" height="2" rx="1" transform="rotate(-33.938 2 9.71436)" fill="#DF135C"/>
<rect width="13" height="2" rx="1" transform="matrix(-0.829642 -0.558295 -0.558295 0.829642 22.9019 9.75781)" fill="#DF135C"/>
<rect x="9" y="20.5" width="7" height="1" fill="#2C1F63"/>
</svg>
