<svg width="24" height="24" viewBox="0 0 24 24" fill="none" xmlns="http://www.w3.org/2000/svg">
<path fill-rule="evenodd" clip-rule="evenodd" d="M10.9886 2.90496C11.265 2.65262 11.6257 2.5127 12 2.5127C12.3743 2.5127 12.735 2.65262 13.0114 2.90496C13.0118 2.9053 13.0121 2.90563 13.0125 2.90597L20.5107 9.71991L20.0062 10.275L20.5212 9.72969C20.6694 9.86967 20.7881 10.0379 20.8703 10.2244C20.9526 10.411 20.9966 10.6121 20.9999 10.8159L21 10.8281V19.5C21 19.8978 20.842 20.2793 20.5607 20.5606C20.2794 20.8419 19.8978 21 19.5 21H4.5C4.10218 21 3.72065 20.8419 3.43934 20.5606C3.15804 20.2793 3 19.8978 3 19.5V10.8281L3.0001 10.8159C3.0034 10.6121 3.04745 10.411 3.12966 10.2244C3.21187 10.0379 3.33057 9.86967 3.47879 9.72969L3.48935 9.71991L10.9875 2.90597C10.9879 2.90563 10.9882 2.9053 10.9886 2.90496ZM19.5 10.8383V19.5H4.5V10.8383C4.50026 10.8352 4.50103 10.8322 4.50229 10.8293C4.50349 10.8266 4.50512 10.8241 4.50711 10.8219L11.9982 4.01438L12 4.0127L12.0018 4.01438L19.4929 10.8219C19.4949 10.8241 19.4965 10.8266 19.4977 10.8293C19.499 10.8322 19.4997 10.8352 19.5 10.8383Z" fill="black"/>
</svg>
