<svg width="24" height="25" viewBox="0 0 24 25" fill="none" xmlns="http://www.w3.org/2000/svg">
<path fill-rule="evenodd" clip-rule="evenodd" d="M6.125 21.5C5.54063 21.5 5.04019 21.2984 4.62369 20.8952C4.20719 20.492 3.99929 20.0079 4 19.4429V10.1857C4 9.86 4.07544 9.55143 4.22631 9.26C4.37719 8.96857 4.58508 8.72857 4.85 8.54L11.225 3.91143C11.4198 3.77429 11.6234 3.67143 11.8359 3.60286C12.0484 3.53429 12.2698 3.5 12.5 3.5C12.7302 3.5 12.9516 3.53429 13.1641 3.60286C13.3766 3.67143 13.5802 3.77429 13.775 3.91143L20.15 8.54C20.4156 8.72857 20.6239 8.96857 20.7747 9.26C20.9256 9.55143 21.0007 9.86 21 10.1857V19.4429C21 20.0086 20.7917 20.493 20.3752 20.8962C19.9587 21.2994 19.4587 21.5007 18.875 21.5L16 21.5L14.625 21.5H10.375L9 21.5L6.125 21.5ZM11 13.5C9.89543 13.5 9 14.3954 9 15.5V20.5H10.375H14.625H16V15.5C16 14.3954 15.1046 13.5 14 13.5H11Z" fill="#C9C9C9"/>
<path fill-rule="evenodd" clip-rule="evenodd" d="M22.0723 9.1994C22.5305 9.50774 22.652 10.1291 22.3436 10.5873C22.0353 11.0455 21.4139 11.167 20.9557 10.8587L12.4187 5.11383L3.94623 10.8152C3.48803 11.1236 2.86663 11.0021 2.5583 10.5439C2.24996 10.0857 2.37144 9.46428 2.82964 9.15595L11.6329 3.23192C11.8343 2.99948 12.1261 2.87912 12.4197 2.88817C12.7124 2.87977 13.0032 3 13.2041 3.23168L22.0723 9.1994Z" fill="#E3E3E3"/>
</svg>
