<svg width="64" height="126" viewBox="0 0 64 126" fill="none" xmlns="http://www.w3.org/2000/svg">
<path fill-rule="evenodd" clip-rule="evenodd" d="M0 86.7796V37.966L64 100.881L56.8457 107.738C55.4754 106.832 53.8332 106.305 52.0678 106.305C47.2751 106.305 43.3899 110.19 43.3899 114.983C43.3899 116.616 43.841 118.144 44.6255 119.449L37.9661 125.83L0 86.7796Z" fill="#FFC351"/>
<path fill-rule="evenodd" clip-rule="evenodd" d="M0 36.8814V86.7797L62.9153 24.9492L55.7609 18.0929C54.3906 18.9983 52.7484 19.5254 50.983 19.5254C46.1903 19.5254 42.3051 15.6402 42.3051 10.8475C42.3051 9.21429 42.7562 7.68648 43.5407 6.38187L36.8814 0L0 36.8814Z" fill="#DF135C"/>
</svg>
