<svg width="24" height="24" viewBox="0 0 24 24" fill="none" xmlns="http://www.w3.org/2000/svg">
<path fill-rule="evenodd" clip-rule="evenodd" d="M13.1973 10.6906C13.5062 10.4147 13.9804 10.4415 14.2563 10.7504C14.397 10.9079 14.5694 11.034 14.7622 11.1203C14.955 11.2066 15.1638 11.2512 15.375 11.2512C15.5863 11.2512 15.7951 11.2066 15.9879 11.1203C16.1807 11.034 16.3531 10.9079 16.4938 10.7504C16.7697 10.4415 17.2438 10.4147 17.5528 10.6906C17.8617 10.9666 17.8885 11.4407 17.6125 11.7496C17.3311 12.0647 16.9863 12.3168 16.6008 12.4894C16.2152 12.662 15.7975 12.7512 15.375 12.7512C14.9526 12.7512 14.5349 12.662 14.1493 12.4894C13.7637 12.3168 13.4189 12.0647 13.1375 11.7496C12.8616 11.4407 12.8884 10.9666 13.1973 10.6906Z" fill="#2C1F63"/>
<path fill-rule="evenodd" clip-rule="evenodd" d="M6.44731 10.6906C6.75624 10.4147 7.23036 10.4415 7.50628 10.7504C7.64699 10.9079 7.81938 11.034 8.01217 11.1203C8.20496 11.2066 8.41381 11.2512 8.62503 11.2512C8.83626 11.2512 9.0451 11.2066 9.23789 11.1203C9.43069 11.034 9.60308 10.9079 9.74378 10.7504C10.0197 10.4415 10.4938 10.4147 10.8028 10.6906C11.1117 10.9666 11.1385 11.4407 10.8625 11.7496C10.5811 12.0647 10.2363 12.3168 9.85076 12.4894C9.46517 12.662 9.04748 12.7512 8.62503 12.7512C8.20258 12.7512 7.78489 12.662 7.39931 12.4894C7.01372 12.3168 6.66894 12.0647 6.38753 11.7496C6.11161 11.4407 6.13837 10.9666 6.44731 10.6906Z" fill="#2C1F63"/>
<path fill-rule="evenodd" clip-rule="evenodd" d="M9.10066 16.6252C9.95991 16.0545 10.9685 15.7501 12 15.7501C13.0314 15.7501 14.04 16.0545 14.8993 16.6252C15.2443 16.8543 15.3383 17.3198 15.1091 17.6649C14.8799 18.0099 14.4145 18.1039 14.0694 17.8747C13.4561 17.4674 12.7362 17.2501 12 17.2501C11.2637 17.2501 10.5438 17.4674 9.93051 17.8747C9.58546 18.1039 9.11997 18.0099 8.89082 17.6649C8.66166 17.3198 8.75561 16.8543 9.10066 16.6252Z" fill="#2C1F63"/>
<path fill-rule="evenodd" clip-rule="evenodd" d="M5.0474 3.13682C6.42392 3.665 9.05054 4.50006 12 4.50006C14.9496 4.50006 17.5762 3.665 18.9527 3.13682C19.1779 3.04615 19.4218 3.01183 19.6634 3.03689C19.9082 3.06231 20.143 3.14799 20.3467 3.28629C20.5504 3.42458 20.7167 3.61118 20.8307 3.82941C20.9439 4.04611 21.002 4.2873 21 4.53172V9.75006C21 13.1963 20.0411 16.3488 18.4517 18.6605C16.8645 20.9689 14.5962 22.5001 12 22.5001C9.40388 22.5001 7.13555 20.9689 5.54843 18.6605C3.95904 16.3488 3.00005 13.1963 3.00005 9.75006V4.53179C2.99804 4.28735 3.05619 4.04613 3.16939 3.82941C3.28338 3.61118 3.44966 3.42458 3.65336 3.28629C3.85706 3.14799 4.09185 3.06231 4.33675 3.03689C4.57828 3.01183 4.82224 3.04615 5.0474 3.13682ZM4.50005 4.53339V9.75006C4.50005 12.932 5.38793 15.7795 6.78448 17.8107C8.1833 19.8452 10.04 21.0001 12 21.0001C13.9601 21.0001 15.8168 19.8452 17.2156 17.8107C18.6122 15.7795 19.5 12.932 19.5 9.75006V4.53339L19.4971 4.53456C18.0406 5.09402 15.2146 6.00006 12 6.00006C8.7855 6.00006 5.95953 5.09402 4.503 4.53456L4.50005 4.53339Z" fill="#2C1F63"/>
</svg>
