<svg width="25" height="24" viewBox="0 0 25 24" fill="none" xmlns="http://www.w3.org/2000/svg">
<path fill-rule="evenodd" clip-rule="evenodd" d="M16.25 3C13.3505 3 11 5.3505 11 8.25C11 11.1495 13.3505 13.5 16.25 13.5C19.1495 13.5 21.5 11.1495 21.5 8.25C21.5 5.3505 19.1495 3 16.25 3ZM9.5 8.25C9.5 4.52208 12.5221 1.5 16.25 1.5C19.9779 1.5 23 4.52208 23 8.25C23 11.9779 19.9779 15 16.25 15C12.5221 15 9.5 11.9779 9.5 8.25Z" fill="#2C1F63"/>
<path fill-rule="evenodd" clip-rule="evenodd" d="M11.4728 3.47284C11.7657 3.17995 12.2406 3.17995 12.5335 3.47284L21.0273 11.9666C21.3201 12.2595 21.3201 12.7344 21.0273 13.0273C20.7344 13.3201 20.2595 13.3201 19.9666 13.0273L11.4728 4.5335C11.18 4.24061 11.18 3.76574 11.4728 3.47284Z" fill="#2C1F63"/>
<path fill-rule="evenodd" clip-rule="evenodd" d="M10.4053 14.0947C10.6982 14.3876 10.6982 14.8624 10.4053 15.1553L9.28033 16.2803C8.98744 16.5732 8.51256 16.5732 8.21967 16.2803C7.92678 15.9874 7.92678 15.5126 8.21967 15.2197L9.34467 14.0947C9.63756 13.8018 10.1124 13.8018 10.4053 14.0947Z" fill="#2C1F63"/>
<path fill-rule="evenodd" clip-rule="evenodd" d="M10.7686 8.57333C11.1026 8.81827 11.1748 9.28761 10.9299 9.62165L3.73926 19.4279L3.73981 19.429L5.07177 20.7611L14.8784 13.5702C15.2125 13.3253 15.6818 13.3975 15.9268 13.7315C16.1717 14.0656 16.0995 14.5349 15.7654 14.7798L5.96206 21.9684C5.67318 22.1838 5.31596 22.2874 4.95652 22.2597C4.5972 22.2321 4.26011 22.0752 4.0076 21.8182L2.68181 20.4924C2.42486 20.2399 2.26799 19.9029 2.24035 19.5436C2.21271 19.1841 2.31626 18.8269 2.53173 18.538L9.72024 8.73465C9.96517 8.40062 10.4345 8.32839 10.7686 8.57333Z" fill="#2C1F63"/>
</svg>
