<svg width="24" height="24" viewBox="0 0 24 24" fill="none" xmlns="http://www.w3.org/2000/svg">
<path fill-rule="evenodd" clip-rule="evenodd" d="M6.47245 10.1782C7.50028 9.75244 8.63128 9.64104 9.72243 9.85809C10.8136 10.0751 11.8158 10.6109 12.6025 11.3975C13.3892 12.1842 13.9249 13.1865 14.142 14.2776C14.359 15.3688 14.2476 16.4998 13.8219 17.5276C13.3961 18.5554 12.6752 19.4339 11.7501 20.052C10.8251 20.6701 9.73756 21 8.62504 21H1.87504C1.55653 21 1.27275 20.7988 1.16732 20.4983C1.06252 20.1995 1.15666 19.8673 1.40207 19.6679L1.40707 19.6637C1.41383 19.6579 1.42686 19.6465 1.44527 19.6294C1.48212 19.5951 1.54035 19.5384 1.61306 19.4584C1.75857 19.2983 1.961 19.0465 2.16609 18.6979C2.57373 18.0049 3.00004 16.9162 3.00004 15.375C3.00004 14.2625 3.32994 13.1749 3.94803 12.2499C4.56611 11.3249 5.44461 10.6039 6.47245 10.1782ZM9.42979 11.3293C8.62962 11.1701 7.80022 11.2518 7.04647 11.564C6.29273 11.8762 5.64849 12.4049 5.19523 13.0833C4.74197 13.7616 4.50004 14.5592 4.50004 15.375C4.50004 17.2088 3.98886 18.5576 3.45899 19.4584C3.45077 19.4724 3.44254 19.4862 3.43431 19.5H8.62504C9.44089 19.5 10.2384 19.2581 10.9168 18.8048C11.5951 18.3516 12.1238 17.7073 12.436 16.9536C12.7483 16.1998 12.8299 15.3704 12.6708 14.5703C12.5116 13.7701 12.1187 13.0351 11.5419 12.4582C10.965 11.8813 10.23 11.4884 9.42979 11.3293ZM1.40592 19.6648C1.40592 19.6648 1.40592 19.6648 1.40591 19.6648L1.40561 19.6651C1.40571 19.665 1.40582 19.6649 1.40592 19.6648Z" fill="#2C1F63"/>
<path fill-rule="evenodd" clip-rule="evenodd" d="M15.4229 6.54823C13.5859 8.19289 12.0269 10.1441 11.14 11.3404C10.8934 11.6731 10.4236 11.7429 10.0909 11.4963C9.75813 11.2496 9.68835 10.7799 9.93502 10.4471C10.8482 9.21531 12.4766 7.17273 14.4224 5.43068C16.3344 3.7189 18.7061 2.15625 21.0938 2.15625C21.508 2.15625 21.8438 2.49204 21.8438 2.90625C21.8438 5.29394 20.2811 7.66564 18.5693 9.57761C16.8273 11.5234 14.7847 13.1519 13.5529 14.065C13.2202 14.3117 12.7504 14.2419 12.5038 13.9091C12.2571 13.5764 12.3269 13.1067 12.6596 12.86C13.856 11.9731 15.8071 10.4141 17.4518 8.57708C18.872 6.99073 19.963 5.30689 20.262 3.73801C18.6931 4.03698 17.0093 5.12799 15.4229 6.54823Z" fill="#2C1F63"/>
<path fill-rule="evenodd" clip-rule="evenodd" d="M11.8156 8.12517C12.0192 7.76443 12.4766 7.63704 12.8374 7.84062C14.2267 8.62468 15.3754 9.77338 16.1594 11.1627C16.363 11.5234 16.2356 11.9809 15.8749 12.1844C15.5141 12.388 15.0567 12.2606 14.8531 11.8999C14.2034 10.7486 13.2514 9.79669 12.1001 9.14695C11.7394 8.94336 11.612 8.4859 11.8156 8.12517Z" fill="#2C1F63"/>
</svg>
