<svg width="25" height="24" viewBox="0 0 25 24" fill="none" xmlns="http://www.w3.org/2000/svg">
<path fill-rule="evenodd" clip-rule="evenodd" d="M11.2084 3.75C7.27334 3.75 4.08337 6.93997 4.08337 10.875C4.08337 14.81 7.27334 18 11.2084 18C15.1434 18 18.3334 14.81 18.3334 10.875C18.3334 6.93997 15.1434 3.75 11.2084 3.75ZM2.58337 10.875C2.58337 6.11154 6.44492 2.25 11.2084 2.25C15.9718 2.25 19.8334 6.11154 19.8334 10.875C19.8334 15.6385 15.9718 19.5 11.2084 19.5C6.44492 19.5 2.58337 15.6385 2.58337 10.875Z" fill="black"/>
<path fill-rule="evenodd" clip-rule="evenodd" d="M16.2468 15.9135C16.5397 15.6206 17.0145 15.6206 17.3074 15.9135L21.8637 20.4698C22.1566 20.7627 22.1566 21.2375 21.8637 21.5304C21.5708 21.8233 21.0959 21.8233 20.803 21.5304L16.2468 16.9742C15.9539 16.6813 15.9539 16.2064 16.2468 15.9135Z" fill="black"/>
</svg>
