<svg width="24" height="24" viewBox="0 0 24 24" fill="none" xmlns="http://www.w3.org/2000/svg">
<path fill-rule="evenodd" clip-rule="evenodd" d="M12 3.75C7.44365 3.75 3.75 7.44365 3.75 12C3.75 16.5563 7.44365 20.25 12 20.25C16.5563 20.25 20.25 16.5563 20.25 12C20.25 7.44365 16.5563 3.75 12 3.75ZM2.25 12C2.25 6.61522 6.61522 2.25 12 2.25C17.3848 2.25 21.75 6.61522 21.75 12C21.75 17.3848 17.3848 21.75 12 21.75C6.61522 21.75 2.25 17.3848 2.25 12Z" fill="#2C1F63"/>
<path fill-rule="evenodd" clip-rule="evenodd" d="M11.559 7.45582C11.8219 7.26473 12.178 7.26473 12.4409 7.45582L16.1815 10.1746C16.444 10.3653 16.554 10.7033 16.4542 11.012L15.0292 15.4183C14.9291 15.7278 14.6409 15.9375 14.3156 15.9375H9.68433C9.35903 15.9375 9.07082 15.7278 8.97072 15.4183L7.54572 11.012C7.44587 10.7033 7.5559 10.3653 7.81838 10.1746L11.559 7.45582ZM9.14034 11.0681L10.23 14.4375H13.7699L14.8596 11.0681L12 8.98967L9.14034 11.0681Z" fill="#2C1F63"/>
<path fill-rule="evenodd" clip-rule="evenodd" d="M12 5.25C12.4142 5.25 12.75 5.58579 12.75 6V8.0625C12.75 8.47671 12.4142 8.8125 12 8.8125C11.5858 8.8125 11.25 8.47671 11.25 8.0625V6C11.25 5.58579 11.5858 5.25 12 5.25Z" fill="#2C1F63"/>
<path fill-rule="evenodd" clip-rule="evenodd" d="M8.1118 3.1782C8.35509 2.84296 8.82408 2.76842 9.15931 3.0117L12.0001 5.07327L14.8408 3.0117C15.176 2.76842 15.645 2.84296 15.8883 3.1782C16.1316 3.51343 16.0571 3.98242 15.7218 4.22571L12.4406 6.60696C12.1778 6.79762 11.8223 6.79762 11.5595 6.60696L8.27829 4.22571C7.94306 3.98242 7.86851 3.51343 8.1118 3.1782Z" fill="#2C1F63"/>
<path fill-rule="evenodd" clip-rule="evenodd" d="M5.57708 9.91271C5.70469 9.51864 6.12759 9.30263 6.52165 9.43023L8.4904 10.0677C8.88447 10.1953 9.10049 10.6182 8.97288 11.0123C8.84528 11.4064 8.42238 11.6224 8.02831 11.4948L6.05956 10.8573C5.66549 10.7297 5.44948 10.3068 5.57708 9.91271Z" fill="#2C1F63"/>
<path fill-rule="evenodd" clip-rule="evenodd" d="M4.81279 5.57704C5.20689 5.44951 5.62974 5.6656 5.75727 6.0597L7.00415 9.91282C7.10397 10.2213 6.99427 10.559 6.73222 10.7499L3.45097 13.1405C3.11619 13.3844 2.64707 13.3108 2.40315 12.976C2.15924 12.6412 2.2329 12.1721 2.56769 11.9282L5.40969 9.85758L4.33014 6.52152C4.20261 6.12743 4.4187 5.70457 4.81279 5.57704Z" fill="#2C1F63"/>
<path fill-rule="evenodd" clip-rule="evenodd" d="M10.1245 14.5803C10.4599 14.8233 10.5348 15.2923 10.2917 15.6277L9.08232 17.2964C8.83925 17.6318 8.37031 17.7067 8.03492 17.4636C7.69952 17.2205 7.62467 16.7516 7.86774 16.4162L9.07712 14.7474C9.32018 14.412 9.78912 14.3372 10.1245 14.5803Z" fill="#2C1F63"/>
<path fill-rule="evenodd" clip-rule="evenodd" d="M3.66565 16.8562C3.66565 16.442 4.00144 16.1062 4.41565 16.1062H8.47502C8.79967 16.1062 9.08745 16.3151 9.18808 16.6237L10.4443 20.4768C10.5727 20.8707 10.3576 21.294 9.96376 21.4224C9.56995 21.5508 9.14661 21.3356 9.01822 20.9418L7.9307 17.6062H4.41565C4.00144 17.6062 3.66565 17.2704 3.66565 16.8562Z" fill="#2C1F63"/>
<path fill-rule="evenodd" clip-rule="evenodd" d="M13.8755 14.5803C14.2109 14.3372 14.6798 14.412 14.9229 14.7474L16.1323 16.4162C16.3753 16.7516 16.3005 17.2205 15.9651 17.4636C15.6297 17.7067 15.1608 17.6318 14.9177 17.2964L13.7083 15.6277C13.4652 15.2923 13.5401 14.8233 13.8755 14.5803Z" fill="#2C1F63"/>
<path fill-rule="evenodd" clip-rule="evenodd" d="M14.8119 16.6237C14.9126 16.3151 15.2004 16.1062 15.525 16.1062H19.5844C19.9986 16.1062 20.3344 16.442 20.3344 16.8562C20.3344 17.2704 19.9986 17.6062 19.5844 17.6062H16.0693L14.9818 20.9418C14.8534 21.3356 14.4301 21.5508 14.0363 21.4224C13.6425 21.294 13.4273 20.8707 13.5557 20.4768L14.8119 16.6237Z" fill="#2C1F63"/>
<path fill-rule="evenodd" clip-rule="evenodd" d="M18.423 9.91271C18.5506 10.3068 18.3345 10.7297 17.9405 10.8573L15.9717 11.4948C15.5777 11.6224 15.1548 11.4064 15.0272 11.0123C14.8996 10.6182 15.1156 10.1953 15.5096 10.0677L17.4784 9.43023C17.8725 9.30263 18.2954 9.51864 18.423 9.91271Z" fill="#2C1F63"/>
<path fill-rule="evenodd" clip-rule="evenodd" d="M19.1872 5.57704C19.5813 5.70457 19.7974 6.12743 19.6698 6.52152L18.5903 9.85758L21.4323 11.9282C21.7671 12.1721 21.8407 12.6412 21.5968 12.976C21.3529 13.3108 20.8838 13.3844 20.549 13.1405L17.2678 10.7499C17.0057 10.559 16.896 10.2213 16.9958 9.91282L18.2427 6.0597C18.3702 5.6656 18.7931 5.44951 19.1872 5.57704Z" fill="#2C1F63"/>
</svg>
