<svg width="24" height="24" viewBox="0 0 24 24" fill="none" xmlns="http://www.w3.org/2000/svg">
<path fill-rule="evenodd" clip-rule="evenodd" d="M11.1233 1.77058C11.3802 1.59066 11.6863 1.49414 11.9999 1.49414C12.3136 1.49414 12.6196 1.59066 12.8765 1.77058C13.13 1.94807 13.3235 2.19825 13.4316 2.48793L15.4907 7.67322L15.4969 7.68924C15.4988 7.69436 15.5021 7.69882 15.5065 7.70207C15.5109 7.70532 15.5162 7.70722 15.5216 7.70754L15.5263 7.70781L21.0575 8.06407C22.4934 8.15731 22.9841 9.95469 21.9391 10.8234C21.9389 10.8235 21.9387 10.8237 21.9385 10.8239L17.7022 14.3572L17.6997 14.3593C17.6902 14.3672 17.6831 14.3776 17.6792 14.3893C17.6755 14.4007 17.6749 14.413 17.6776 14.4247C17.6777 14.425 17.6778 14.4253 17.6779 14.4257L19.0455 19.8026C19.3767 21.1098 17.9652 22.287 16.7373 21.5125L16.7354 21.5113L12.0104 18.5113C12.0074 18.5094 12.0035 18.5081 11.9999 18.5081C11.9964 18.5081 11.9929 18.5091 11.9899 18.511L11.9887 18.5118L7.59321 21.2953C7.59298 21.2954 7.59275 21.2956 7.59252 21.2957C6.24553 22.1521 4.68975 20.8501 5.05748 19.4088C5.05742 19.409 5.05754 19.4085 5.05748 19.4088L6.322 14.4257C6.32207 14.4254 6.32214 14.4251 6.32221 14.4248C6.32496 14.4131 6.32441 14.4008 6.32064 14.3893C6.31677 14.3776 6.30966 14.3672 6.30013 14.3593L6.29766 14.3572L2.06138 10.8239C2.06118 10.8237 2.06098 10.8235 2.06077 10.8234C1.01581 9.95466 1.50612 8.15734 2.94195 8.0641L8.47824 7.70752C8.4837 7.70721 8.48894 7.70532 8.49333 7.70207C8.49773 7.69882 8.50108 7.69436 8.50298 7.68924L8.50913 7.67322L10.5683 2.48793C10.6764 2.19825 10.8699 1.94807 11.1233 1.77058ZM12.8149 17.2453C12.8147 17.2452 12.815 17.2454 12.8149 17.2453L17.5376 20.2438C17.5374 20.2437 17.5378 20.2439 17.5376 20.2438C17.5461 20.2491 17.5517 20.2512 17.5532 20.2517C17.5552 20.2513 17.5617 20.2495 17.5706 20.2427C17.582 20.2341 17.5892 20.2234 17.5925 20.2146C17.594 20.2107 17.595 20.2064 17.5953 20.2011C17.5955 20.196 17.5954 20.1865 17.5917 20.1718C17.5917 20.1718 17.5917 20.1719 17.5917 20.1718L16.222 14.7869C16.1509 14.5006 16.1623 14.2 16.2546 13.9198C16.3467 13.6402 16.5159 13.3922 16.7425 13.2044C16.743 13.204 16.7434 13.2036 16.7439 13.2033L20.9801 9.66993C20.9889 9.66264 20.9926 9.65742 20.9942 9.65491C20.9959 9.65216 20.9974 9.64894 20.9986 9.64449C21.0013 9.63438 21.0022 9.61694 20.996 9.59678C20.9897 9.57669 20.9805 9.56693 20.9778 9.56463C20.9769 9.56386 20.9766 9.56374 20.9763 9.56361C20.9762 9.56358 20.9719 9.5617 20.961 9.56096C20.9609 9.56096 20.961 9.56097 20.961 9.56096L15.4345 9.20501C15.4336 9.20495 15.4327 9.2049 15.4318 9.20485C15.1364 9.18714 14.8524 9.08402 14.6145 8.90799C14.3785 8.73343 14.1978 8.49463 14.094 8.22021L12.0341 3.03308C12.0314 3.02631 12.0288 3.0195 12.0264 3.01265C12.0244 3.00723 12.0208 3.00254 12.0161 2.99923C12.0113 2.99592 12.0057 2.99414 11.9999 2.99414C11.9942 2.99414 11.9885 2.99592 11.9838 2.99923C11.9791 3.00254 11.9755 3.00723 11.9735 3.01265C11.971 3.0195 11.9684 3.02631 11.9657 3.03308L9.90586 8.22021C9.80203 8.49463 9.62137 8.73343 9.38538 8.90799C9.14742 9.08402 8.86347 9.18714 8.56804 9.20485L3.03915 9.56095C3.03907 9.56095 3.03923 9.56094 3.03915 9.56095C3.02823 9.56168 3.02372 9.56355 3.02364 9.56359C3.0233 9.56373 3.02302 9.56381 3.02206 9.56463C3.01934 9.56693 3.01011 9.57669 3.00389 9.59679C2.99766 9.61694 2.99859 9.63438 3.00125 9.64449C3.00242 9.64894 3.00392 9.65216 3.00566 9.65491C3.00724 9.65742 3.01095 9.66264 3.01973 9.66993L3.02094 9.67094L7.25598 13.2033C7.25647 13.2037 7.25696 13.2041 7.25745 13.2045C7.48406 13.3923 7.65314 13.6403 7.74527 13.9198C7.8376 14.2 7.8489 14.5006 7.77785 14.7869L7.77689 14.7907L6.51095 19.7795C6.48385 19.8855 6.52123 19.9677 6.58974 20.0197C6.6248 20.0464 6.66022 20.0578 6.6882 20.0598C6.71135 20.0614 6.7434 20.0581 6.7879 20.0298L11.185 17.2453C11.1854 17.245 11.1858 17.2448 11.1862 17.2445C11.4295 17.0901 11.7117 17.0081 11.9999 17.0081C12.2884 17.0081 12.5714 17.0905 12.8149 17.2453Z" fill="#2C1F63"/>
</svg>
