<svg width="25" height="24" viewBox="0 0 25 24" fill="none" xmlns="http://www.w3.org/2000/svg">
<rect x="6.5" y="6.875" width="14" height="3" fill="#FFC351"/>
<rect x="6.5" y="13.875" width="14" height="3" fill="#FFC351"/>
<path fill-rule="evenodd" clip-rule="evenodd" d="M20.5 5H4.0625C3.51549 5 2.99089 5.2173 2.60409 5.60409C2.2173 5.99089 2 6.51549 2 7.0625V9.125C2 9.30734 2.07243 9.4822 2.20136 9.61114C2.3303 9.74007 2.50516 9.8125 2.6875 9.8125C3.23451 9.8125 3.75911 10.0298 4.14591 10.4166C4.5327 10.8034 4.75 11.328 4.75 11.875C4.75 12.422 4.5327 12.9466 4.14591 13.3334C3.75911 13.7202 3.23451 13.9375 2.6875 13.9375C2.50516 13.9375 2.3303 14.0099 2.20136 14.1389C2.07243 14.2678 2 14.4427 2 14.625V16.6875C2 17.2345 2.2173 17.7591 2.60409 18.1459C2.99089 18.5327 3.51549 18.75 4.0625 18.75H20.5V5ZM7.70136 8.92364C7.57243 8.7947 7.5 8.61984 7.5 8.4375C7.5 8.25516 7.57243 8.0803 7.70136 7.95136C7.8303 7.82243 8.00516 7.75 8.1875 7.75H17.8125C17.9948 7.75 18.1697 7.82243 18.2986 7.95136C18.4276 8.0803 18.5 8.25516 18.5 8.4375C18.5 8.61984 18.4276 8.7947 18.2986 8.92364C18.1697 9.05257 17.9948 9.125 17.8125 9.125H8.1875C8.00516 9.125 7.8303 9.05257 7.70136 8.92364ZM7.70136 15.7986C7.57243 15.6697 7.5 15.4948 7.5 15.3125C7.5 15.1302 7.57243 14.9553 7.70136 14.8264C7.8303 14.6974 8.00516 14.625 8.1875 14.625H17.8125C17.9948 14.625 18.1697 14.6974 18.2986 14.8264C18.4276 14.9553 18.5 15.1302 18.5 15.3125C18.5 15.4948 18.4276 15.6697 18.2986 15.7986C18.1697 15.9276 17.9948 16 17.8125 16H8.1875C8.00516 16 7.8303 15.9276 7.70136 15.7986ZM7.90273 12.8473C7.64487 12.5894 7.5 12.2397 7.5 11.875C7.5 11.5103 7.64487 11.1606 7.90273 10.9027C8.16059 10.6449 8.51033 10.5 8.875 10.5H17.125C17.4897 10.5 17.8394 10.6449 18.0973 10.9027C18.3551 11.1606 18.5 11.5103 18.5 11.875C18.5 12.2397 18.3551 12.5894 18.0973 12.8473C17.8394 13.1051 17.4897 13.25 17.125 13.25H8.875C8.51033 13.25 8.16059 13.1051 7.90273 12.8473Z" fill="#2C1F63"/>
<path fill-rule="evenodd" clip-rule="evenodd" d="M20.5 18.75H21.9375C22.4845 18.75 23.0091 18.5327 23.3959 18.1459C23.7827 17.7591 24 17.2345 24 16.6875V14.625C24 14.4427 23.9276 14.2678 23.7986 14.1389C23.6697 14.0099 23.4948 13.9375 23.3125 13.9375C22.7655 13.9375 22.2409 13.7202 21.8541 13.3334C21.4673 12.9466 21.25 12.422 21.25 11.875C21.25 11.328 21.4673 10.8034 21.8541 10.4166C22.2409 10.0298 22.7655 9.8125 23.3125 9.8125C23.4948 9.8125 23.6697 9.74007 23.7986 9.61114C23.9276 9.4822 24 9.30734 24 9.125V7.0625C24 6.51549 23.7827 5.99089 23.3959 5.60409C23.0091 5.2173 22.4845 5 21.9375 5H20.5V18.75Z" fill="#DF135C"/>
</svg>
