<svg width="25" height="24" viewBox="0 0 25 24" fill="none" xmlns="http://www.w3.org/2000/svg">
<path d="M14.3222 2.91288C14.1512 2.75602 13.9262 2.67126 13.6942 2.67629C13.4623 2.68132 13.2412 2.77576 13.0772 2.93988L3.15317 12.8639C3.06949 12.9475 3.00311 13.0467 2.95781 13.156C2.91252 13.2652 2.88921 13.3824 2.88921 13.5006C2.88921 13.6189 2.91252 13.736 2.95781 13.8453C3.00311 13.9545 3.06949 14.0538 3.15317 14.1374L4.54217 15.5264C4.55382 15.53 4.566 15.5315 4.57817 15.5309C4.62317 15.5309 4.68317 15.5144 4.74017 15.4769C5.28838 15.1111 5.94639 14.9467 6.60221 15.0115C7.25803 15.0764 7.87111 15.3665 8.3371 15.8324C8.80309 16.2984 9.09319 16.9115 9.15802 17.5673C9.22285 18.2232 9.0584 18.8812 8.69267 19.4294C8.65973 19.4772 8.64101 19.5334 8.63867 19.5914C8.63867 19.6109 8.64167 19.6214 8.64317 19.6259L9.99917 20.9834C10.0844 21.0688 10.1859 21.1362 10.2977 21.1815C10.4094 21.2269 10.5292 21.2494 10.6498 21.2475C10.7704 21.2457 10.8894 21.2197 10.9998 21.1709C11.1101 21.1222 11.2096 21.0518 11.2922 20.9639L21.1907 10.4459C21.2722 10.3591 21.3357 10.2569 21.3774 10.1454C21.4192 10.0338 21.4384 9.91512 21.4339 9.79611C21.4294 9.67709 21.4014 9.56015 21.3514 9.45205C21.3014 9.34395 21.2305 9.24685 21.1427 9.16638L19.8137 7.94688H19.8092C19.7879 7.94268 19.766 7.94268 19.7447 7.94688C19.66 7.96452 19.583 8.00803 19.5242 8.07138C19.2735 8.35551 18.9687 8.5868 18.6276 8.75173C18.2865 8.91666 17.9159 9.01192 17.5375 9.03193C17.1592 9.05194 16.7806 8.99631 16.424 8.86828C16.0674 8.74025 15.7399 8.5424 15.4606 8.2863C15.1814 8.0302 14.956 7.72099 14.7977 7.37675C14.6394 7.03252 14.5513 6.66017 14.5386 6.28149C14.5259 5.90281 14.5888 5.52539 14.7237 5.17132C14.8586 4.81725 15.0627 4.49362 15.3242 4.21938C15.3819 4.15502 15.418 4.07427 15.4277 3.98838C15.4304 3.96571 15.4283 3.94272 15.4217 3.92088L14.3222 2.91288ZM12.2297 2.09088C12.6123 1.70822 13.128 1.48806 13.669 1.47632C14.2101 1.46459 14.7348 1.66217 15.1337 2.02788L16.2332 3.03738C16.5617 3.33738 16.6532 3.74688 16.6232 4.09638C16.5917 4.44138 16.4402 4.77888 16.2062 5.03238C16.0597 5.19213 15.9462 5.37917 15.872 5.58281C15.7978 5.78645 15.7645 6.0027 15.7739 6.21922C15.7833 6.43575 15.8352 6.6483 15.9268 6.84474C16.0183 7.04118 16.1477 7.21767 16.3074 7.36413C16.4672 7.51059 16.6542 7.62414 16.8578 7.69832C17.0615 7.77249 17.2777 7.80583 17.4943 7.79643C17.7108 7.78702 17.9233 7.73507 18.1198 7.64352C18.3162 7.55198 18.4927 7.42263 18.6392 7.26288C18.8717 7.00788 19.1942 6.82788 19.5347 6.76638C19.7267 6.72784 19.925 6.73447 20.114 6.78575C20.303 6.83704 20.4775 6.93157 20.6237 7.06188L21.9542 8.28138C22.159 8.46934 22.3245 8.69609 22.441 8.9485C22.5575 9.2009 22.6228 9.47393 22.633 9.75175C22.6431 10.0296 22.5981 10.3066 22.5003 10.5669C22.4026 10.8272 22.2542 11.0654 22.0637 11.2679L12.1667 21.7859C11.9739 21.9907 11.742 22.1547 11.4847 22.2682C11.2274 22.3816 10.9499 22.4423 10.6687 22.4465C10.3875 22.4507 10.1083 22.3984 9.84772 22.2926C9.58713 22.1869 9.35043 22.0298 9.15167 21.8309L7.79567 20.4749C7.27517 19.9544 7.40117 19.2044 7.69517 18.7649C7.90609 18.4475 8.00068 18.067 7.96287 17.6878C7.92506 17.3086 7.75718 16.9542 7.48774 16.6848C7.2183 16.4154 6.86391 16.2475 6.48474 16.2097C6.10558 16.1719 5.72501 16.2665 5.40767 16.4774C4.96517 16.7699 4.21667 16.8959 3.69617 16.3739L2.30717 14.9849C2.11214 14.7899 1.95744 14.5584 1.85189 14.3036C1.74634 14.0488 1.69202 13.7757 1.69202 13.4999C1.69202 13.2241 1.74634 12.951 1.85189 12.6962C1.95744 12.4414 2.11214 12.2099 2.30717 12.0149L12.2297 2.09088Z" fill="black"/>
</svg>
